<svg width="212" height="49" viewBox="0 0 212 49" fill="none" xmlns="http://www.w3.org/2000/svg">
<path d="M211.5 0.984619H0.5V47.9846H211.5V0.984619Z" stroke="#FF6A6A"/>
<path d="M44.488 30.2526C44.9307 30.2526 45.312 30.202 45.632 30.1006C45.952 29.9993 46.2133 29.858 46.416 29.6766C46.624 29.49 46.776 29.2713 46.872 29.0206C46.968 28.7646 47.016 28.4846 47.016 28.1806C47.016 27.5886 46.8053 27.122 46.384 26.7806C45.9627 26.434 45.3307 26.2606 44.488 26.2606H42.008V30.2526H44.488ZM42.008 21.2446V25.1566H44.056C44.4933 25.1566 44.872 25.1086 45.192 25.0126C45.5173 24.9166 45.784 24.7833 45.992 24.6126C46.2053 24.442 46.3627 24.2366 46.464 23.9966C46.5653 23.7513 46.616 23.4846 46.616 23.1966C46.616 22.5193 46.4133 22.026 46.008 21.7166C45.6027 21.402 44.9733 21.2446 44.12 21.2446H42.008ZM44.12 20.0206C44.824 20.0206 45.4293 20.09 45.936 20.2286C46.448 20.3673 46.8667 20.5646 47.192 20.8206C47.5227 21.0766 47.7653 21.3913 47.92 21.7646C48.0747 22.1326 48.152 22.5486 48.152 23.0126C48.152 23.2953 48.1067 23.5673 48.016 23.8286C47.9307 24.0846 47.8 24.3246 47.624 24.5486C47.448 24.7726 47.224 24.9753 46.952 25.1566C46.6853 25.3326 46.3707 25.4766 46.008 25.5886C46.8507 25.7486 47.4827 26.05 47.904 26.4926C48.3307 26.93 48.544 27.506 48.544 28.2206C48.544 28.706 48.4533 29.1486 48.272 29.5486C48.096 29.9486 47.8347 30.2926 47.488 30.5806C47.1467 30.8686 46.7253 31.0926 46.224 31.2526C45.7227 31.4073 45.152 31.4846 44.512 31.4846H40.464V20.0206H44.12ZM51.6519 25.0046C51.9079 24.45 52.2225 24.018 52.5959 23.7086C52.9692 23.394 53.4252 23.2366 53.9639 23.2366C54.1345 23.2366 54.2972 23.2553 54.4519 23.2926C54.6119 23.33 54.7532 23.3886 54.8759 23.4686L54.7719 24.5326C54.7399 24.666 54.6599 24.7326 54.5319 24.7326C54.4572 24.7326 54.3479 24.7166 54.2039 24.6846C54.0599 24.6526 53.8972 24.6366 53.7159 24.6366C53.4599 24.6366 53.2305 24.674 53.0279 24.7486C52.8305 24.8233 52.6519 24.9353 52.4919 25.0846C52.3372 25.2286 52.1959 25.41 52.0679 25.6286C51.9452 25.842 51.8332 26.0873 51.7319 26.3646V31.4846H50.2999V23.3806H51.1159C51.2705 23.3806 51.3772 23.41 51.4359 23.4686C51.4945 23.5273 51.5345 23.6286 51.5559 23.7726L51.6519 25.0046ZM59.2159 23.2526C59.8079 23.2526 60.3412 23.3513 60.8159 23.5486C61.2905 23.746 61.6959 24.026 62.0319 24.3886C62.3679 24.7513 62.6239 25.1913 62.7999 25.7086C62.9812 26.2206 63.0719 26.794 63.0719 27.4286C63.0719 28.0686 62.9812 28.6446 62.7999 29.1566C62.6239 29.6686 62.3679 30.106 62.0319 30.4686C61.6959 30.8313 61.2905 31.1113 60.8159 31.3086C60.3412 31.5006 59.8079 31.5966 59.2159 31.5966C58.6185 31.5966 58.0799 31.5006 57.5999 31.3086C57.1252 31.1113 56.7199 30.8313 56.3839 30.4686C56.0479 30.106 55.7892 29.6686 55.6079 29.1566C55.4319 28.6446 55.3439 28.0686 55.3439 27.4286C55.3439 26.794 55.4319 26.2206 55.6079 25.7086C55.7892 25.1913 56.0479 24.7513 56.3839 24.3886C56.7199 24.026 57.1252 23.746 57.5999 23.5486C58.0799 23.3513 58.6185 23.2526 59.2159 23.2526ZM59.2159 30.4846C60.0159 30.4846 60.6132 30.218 61.0079 29.6846C61.4025 29.146 61.5999 28.3966 61.5999 27.4366C61.5999 26.4713 61.4025 25.7193 61.0079 25.1806C60.6132 24.642 60.0159 24.3726 59.2159 24.3726C58.8105 24.3726 58.4559 24.442 58.1519 24.5806C57.8532 24.7193 57.6025 24.9193 57.3999 25.1806C57.2025 25.442 57.0532 25.7646 56.9519 26.1486C56.8559 26.5273 56.8079 26.9566 56.8079 27.4366C56.8079 28.3966 57.0052 29.146 57.3999 29.6846C57.7999 30.218 58.4052 30.4846 59.2159 30.4846ZM75.929 23.3806L73.305 31.4846H72.177C72.0383 31.4846 71.9423 31.394 71.889 31.2126L70.097 25.7166C70.0543 25.594 70.0197 25.4713 69.993 25.3486C69.9663 25.2206 69.9397 25.0953 69.913 24.9726C69.8863 25.0953 69.8597 25.2206 69.833 25.3486C69.8063 25.4713 69.7717 25.5966 69.729 25.7246L67.905 31.2126C67.857 31.394 67.7503 31.4846 67.585 31.4846H66.513L63.889 23.3806H65.009C65.121 23.3806 65.2143 23.41 65.289 23.4686C65.369 23.5273 65.4223 23.5966 65.449 23.6766L67.001 28.8926C67.0917 29.2766 67.1637 29.6393 67.217 29.9806C67.265 29.8046 67.313 29.626 67.361 29.4446C67.4143 29.2633 67.4703 29.0793 67.529 28.8926L69.241 23.6446C69.2677 23.5646 69.313 23.498 69.377 23.4446C69.4463 23.3913 69.529 23.3646 69.625 23.3646H70.249C70.3557 23.3646 70.4437 23.3913 70.513 23.4446C70.5823 23.498 70.6303 23.5646 70.657 23.6446L72.329 28.8926C72.3877 29.0793 72.441 29.2633 72.489 29.4446C72.537 29.626 72.5823 29.8046 72.625 29.9806C72.6517 29.8046 72.6837 29.6286 72.721 29.4526C72.7637 29.2713 72.809 29.0846 72.857 28.8926L74.441 23.6766C74.4677 23.5913 74.5183 23.522 74.593 23.4686C74.6677 23.41 74.7557 23.3806 74.857 23.3806H75.929ZM81.973 24.7166C81.909 24.834 81.8103 24.8926 81.677 24.8926C81.597 24.8926 81.5063 24.8633 81.405 24.8046C81.3037 24.746 81.1783 24.682 81.029 24.6126C80.885 24.538 80.7117 24.4713 80.509 24.4126C80.3063 24.3486 80.0663 24.3166 79.789 24.3166C79.549 24.3166 79.333 24.3486 79.141 24.4126C78.949 24.4713 78.7837 24.554 78.645 24.6606C78.5117 24.7673 78.4077 24.8926 78.333 25.0366C78.2637 25.1753 78.229 25.3273 78.229 25.4926C78.229 25.7006 78.2877 25.874 78.405 26.0126C78.5277 26.1513 78.6877 26.2713 78.885 26.3726C79.0823 26.474 79.3063 26.5646 79.557 26.6446C79.8077 26.7193 80.0637 26.802 80.325 26.8926C80.5917 26.978 80.8503 27.074 81.101 27.1806C81.3517 27.2873 81.5757 27.4206 81.773 27.5806C81.9703 27.7406 82.1277 27.938 82.245 28.1726C82.3677 28.402 82.429 28.6793 82.429 29.0046C82.429 29.378 82.3623 29.7246 82.229 30.0446C82.0957 30.3593 81.8983 30.634 81.637 30.8686C81.3757 31.098 81.0557 31.2793 80.677 31.4126C80.2983 31.546 79.861 31.6126 79.365 31.6126C78.7997 31.6126 78.2877 31.522 77.829 31.3406C77.3703 31.154 76.981 30.9166 76.661 30.6286L76.997 30.0846C77.0397 30.0153 77.0903 29.962 77.149 29.9246C77.2077 29.8873 77.2823 29.8686 77.373 29.8686C77.469 29.8686 77.5703 29.906 77.677 29.9806C77.7837 30.0553 77.9117 30.138 78.061 30.2286C78.2157 30.3193 78.4023 30.402 78.621 30.4766C78.8397 30.5513 79.1117 30.5886 79.437 30.5886C79.7143 30.5886 79.957 30.554 80.165 30.4846C80.373 30.41 80.5463 30.3113 80.685 30.1886C80.8237 30.066 80.925 29.9246 80.989 29.7646C81.0583 29.6046 81.093 29.434 81.093 29.2526C81.093 29.0286 81.0317 28.8446 80.909 28.7006C80.7917 28.5513 80.6343 28.426 80.437 28.3246C80.2397 28.218 80.013 28.1273 79.757 28.0526C79.5063 27.9726 79.2477 27.89 78.981 27.8046C78.7197 27.7193 78.461 27.6233 78.205 27.5166C77.9543 27.4046 77.7303 27.266 77.533 27.1006C77.3357 26.9353 77.1757 26.7326 77.053 26.4926C76.9357 26.2473 76.877 25.9513 76.877 25.6046C76.877 25.2953 76.941 24.9993 77.069 24.7166C77.197 24.4286 77.3837 24.178 77.629 23.9646C77.8743 23.746 78.1757 23.5726 78.533 23.4446C78.8903 23.3166 79.2983 23.2526 79.757 23.2526C80.2903 23.2526 80.7677 23.338 81.189 23.5086C81.6157 23.674 81.9837 23.9033 82.293 24.1966L81.973 24.7166ZM89.5989 26.5486C89.5989 26.218 89.5509 25.9166 89.4549 25.6446C89.3642 25.3673 89.2282 25.13 89.0469 24.9326C88.8709 24.73 88.6549 24.5753 88.3989 24.4686C88.1429 24.3566 87.8522 24.3006 87.5269 24.3006C86.8442 24.3006 86.3029 24.5006 85.9029 24.9006C85.5082 25.2953 85.2629 25.8446 85.1669 26.5486H89.5989ZM90.7509 30.3486C90.5749 30.562 90.3642 30.7486 90.1189 30.9086C89.8735 31.0633 89.6095 31.1913 89.3269 31.2926C89.0495 31.394 88.7615 31.4686 88.4629 31.5166C88.1642 31.57 87.8682 31.5966 87.5749 31.5966C87.0149 31.5966 86.4975 31.5033 86.0229 31.3166C85.5535 31.1246 85.1455 30.8473 84.7989 30.4846C84.4575 30.1166 84.1909 29.6633 83.9989 29.1246C83.8069 28.586 83.7109 27.9673 83.7109 27.2686C83.7109 26.7033 83.7962 26.1753 83.9669 25.6846C84.1429 25.194 84.3935 24.77 84.7189 24.4126C85.0442 24.05 85.4415 23.7673 85.9109 23.5646C86.3802 23.3566 86.9082 23.2526 87.4949 23.2526C87.9802 23.2526 88.4282 23.3353 88.8389 23.5006C89.2549 23.6606 89.6122 23.8953 89.9109 24.2046C90.2149 24.5086 90.4522 24.8873 90.6229 25.3406C90.7935 25.7886 90.8789 26.3006 90.8789 26.8766C90.8789 27.1006 90.8549 27.25 90.8069 27.3246C90.7589 27.3993 90.6682 27.4366 90.5349 27.4366H85.1189C85.1349 27.9486 85.2042 28.394 85.3269 28.7726C85.4549 29.1513 85.6309 29.4686 85.8549 29.7246C86.0789 29.9753 86.3455 30.1646 86.6549 30.2926C86.9642 30.4153 87.3109 30.4766 87.6949 30.4766C88.0522 30.4766 88.3589 30.4366 88.6149 30.3566C88.8762 30.2713 89.1002 30.1806 89.2869 30.0846C89.4735 29.9886 89.6282 29.9006 89.7509 29.8206C89.8789 29.7353 89.9882 29.6926 90.0789 29.6926C90.1962 29.6926 90.2869 29.738 90.3509 29.8286L90.7509 30.3486ZM102.615 27.2286L100.815 22.5646C100.761 22.426 100.705 22.266 100.647 22.0846C100.588 21.898 100.532 21.7006 100.479 21.4926C100.367 21.9246 100.252 22.2846 100.135 22.5726L98.3345 27.2286H102.615ZM105.847 31.4846H104.647C104.508 31.4846 104.396 31.45 104.311 31.3806C104.225 31.3113 104.161 31.2233 104.119 31.1166L103.047 28.3486H97.9025L96.8305 31.1166C96.7985 31.2126 96.7372 31.298 96.6465 31.3726C96.5558 31.4473 96.4438 31.4846 96.3105 31.4846H95.1105L99.6945 20.0206H101.263L105.847 31.4846ZM108.459 19.7006V31.4846H107.035V19.7006H108.459ZM112.241 19.7006V31.4846H110.817V19.7006H112.241ZM122.364 25.9646C122.806 25.9646 123.196 25.906 123.532 25.7886C123.873 25.6713 124.158 25.5086 124.388 25.3006C124.622 25.0873 124.798 24.834 124.916 24.5406C125.033 24.2473 125.092 23.9246 125.092 23.5726C125.092 22.842 124.865 22.2713 124.412 21.8606C123.964 21.45 123.281 21.2446 122.364 21.2446H120.524V25.9646H122.364ZM122.364 20.0206C123.089 20.0206 123.718 20.106 124.252 20.2766C124.79 20.442 125.236 20.6793 125.588 20.9886C125.94 21.298 126.201 21.6713 126.372 22.1086C126.548 22.546 126.636 23.034 126.636 23.5726C126.636 24.106 126.542 24.594 126.356 25.0366C126.169 25.4793 125.894 25.8606 125.532 26.1806C125.174 26.5006 124.729 26.7513 124.196 26.9326C123.668 27.1086 123.057 27.1966 122.364 27.1966H120.524V31.4846H118.98V20.0206H122.364ZM129.449 25.0046C129.705 24.45 130.019 24.018 130.393 23.7086C130.766 23.394 131.222 23.2366 131.761 23.2366C131.931 23.2366 132.094 23.2553 132.249 23.2926C132.409 23.33 132.55 23.3886 132.673 23.4686L132.569 24.5326C132.537 24.666 132.457 24.7326 132.329 24.7326C132.254 24.7326 132.145 24.7166 132.001 24.6846C131.857 24.6526 131.694 24.6366 131.513 24.6366C131.257 24.6366 131.027 24.674 130.825 24.7486C130.627 24.8233 130.449 24.9353 130.289 25.0846C130.134 25.2286 129.993 25.41 129.865 25.6286C129.742 25.842 129.63 26.0873 129.529 26.3646V31.4846H128.097V23.3806H128.913C129.067 23.3806 129.174 23.41 129.233 23.4686C129.291 23.5273 129.331 23.6286 129.353 23.7726L129.449 25.0046ZM137.013 23.2526C137.605 23.2526 138.138 23.3513 138.613 23.5486C139.087 23.746 139.493 24.026 139.829 24.3886C140.165 24.7513 140.421 25.1913 140.597 25.7086C140.778 26.2206 140.869 26.794 140.869 27.4286C140.869 28.0686 140.778 28.6446 140.597 29.1566C140.421 29.6686 140.165 30.106 139.829 30.4686C139.493 30.8313 139.087 31.1113 138.613 31.3086C138.138 31.5006 137.605 31.5966 137.013 31.5966C136.415 31.5966 135.877 31.5006 135.397 31.3086C134.922 31.1113 134.517 30.8313 134.181 30.4686C133.845 30.106 133.586 29.6686 133.405 29.1566C133.229 28.6446 133.141 28.0686 133.141 27.4286C133.141 26.794 133.229 26.2206 133.405 25.7086C133.586 25.1913 133.845 24.7513 134.181 24.3886C134.517 24.026 134.922 23.746 135.397 23.5486C135.877 23.3513 136.415 23.2526 137.013 23.2526ZM137.013 30.4846C137.813 30.4846 138.41 30.218 138.805 29.6846C139.199 29.146 139.397 28.3966 139.397 27.4366C139.397 26.4713 139.199 25.7193 138.805 25.1806C138.41 24.642 137.813 24.3726 137.013 24.3726C136.607 24.3726 136.253 24.442 135.949 24.5806C135.65 24.7193 135.399 24.9193 135.197 25.1806C134.999 25.442 134.85 25.7646 134.749 26.1486C134.653 26.5273 134.605 26.9566 134.605 27.4366C134.605 28.3966 134.802 29.146 135.197 29.6846C135.597 30.218 136.202 30.4846 137.013 30.4846ZM147.955 25.3086C147.688 24.9513 147.4 24.7033 147.091 24.5646C146.782 24.4206 146.435 24.3486 146.051 24.3486C145.299 24.3486 144.72 24.618 144.315 25.1566C143.91 25.6953 143.707 26.4633 143.707 27.4606C143.707 27.9886 143.752 28.442 143.843 28.8206C143.934 29.194 144.067 29.5033 144.243 29.7486C144.419 29.9886 144.635 30.1646 144.891 30.2766C145.147 30.3886 145.438 30.4446 145.763 30.4446C146.232 30.4446 146.64 30.338 146.987 30.1246C147.339 29.9113 147.662 29.61 147.955 29.2206V25.3086ZM149.379 19.7006V31.4846H148.531C148.328 31.4846 148.2 31.386 148.147 31.1886L148.019 30.2046C147.672 30.6206 147.278 30.9566 146.835 31.2126C146.392 31.4686 145.88 31.5966 145.299 31.5966C144.835 31.5966 144.414 31.5086 144.035 31.3326C143.656 31.1513 143.334 30.8873 143.067 30.5406C142.8 30.194 142.595 29.762 142.451 29.2446C142.307 28.7273 142.235 28.1326 142.235 27.4606C142.235 26.8633 142.315 26.3086 142.475 25.7966C142.635 25.2793 142.864 24.8313 143.163 24.4526C143.462 24.074 143.827 23.778 144.259 23.5646C144.696 23.346 145.187 23.2366 145.731 23.2366C146.227 23.2366 146.651 23.322 147.003 23.4926C147.36 23.658 147.678 23.89 147.955 24.1886V19.7006H149.379ZM158.292 23.3806V31.4846H157.444C157.241 31.4846 157.113 31.386 157.06 31.1886L156.948 30.3166C156.596 30.706 156.201 31.0206 155.764 31.2606C155.327 31.4953 154.825 31.6126 154.26 31.6126C153.817 31.6126 153.425 31.5406 153.084 31.3966C152.748 31.2473 152.465 31.0393 152.236 30.7726C152.007 30.506 151.833 30.1833 151.716 29.8046C151.604 29.426 151.548 29.0073 151.548 28.5486V23.3806H152.972V28.5486C152.972 29.162 153.111 29.6366 153.388 29.9726C153.671 30.3086 154.1 30.4766 154.676 30.4766C155.097 30.4766 155.489 30.378 155.852 30.1806C156.22 29.978 156.559 29.7006 156.868 29.3486V23.3806H158.292ZM166.19 24.8206C166.147 24.8793 166.105 24.9246 166.062 24.9566C166.019 24.9886 165.961 25.0046 165.886 25.0046C165.806 25.0046 165.718 24.9726 165.622 24.9086C165.526 24.8393 165.406 24.7646 165.262 24.6846C165.123 24.6046 164.95 24.5326 164.742 24.4686C164.539 24.3993 164.289 24.3646 163.99 24.3646C163.59 24.3646 163.238 24.4366 162.934 24.5806C162.63 24.7193 162.374 24.922 162.166 25.1886C161.963 25.4553 161.809 25.778 161.702 26.1566C161.601 26.5353 161.55 26.9593 161.55 27.4286C161.55 27.9193 161.606 28.3566 161.718 28.7406C161.83 29.1193 161.987 29.4393 162.19 29.7006C162.398 29.9566 162.646 30.154 162.934 30.2926C163.227 30.426 163.555 30.4926 163.918 30.4926C164.265 30.4926 164.55 30.4526 164.774 30.3726C164.998 30.2873 165.182 30.194 165.326 30.0926C165.475 29.9913 165.598 29.9006 165.694 29.8206C165.795 29.7353 165.894 29.6926 165.99 29.6926C166.107 29.6926 166.198 29.738 166.262 29.8286L166.662 30.3486C166.486 30.5673 166.286 30.754 166.062 30.9086C165.838 31.0633 165.595 31.194 165.334 31.3006C165.078 31.402 164.809 31.4766 164.526 31.5246C164.243 31.5726 163.955 31.5966 163.662 31.5966C163.155 31.5966 162.683 31.5033 162.246 31.3166C161.814 31.13 161.438 30.8606 161.118 30.5086C160.798 30.1513 160.547 29.714 160.366 29.1966C160.185 28.6793 160.094 28.09 160.094 27.4286C160.094 26.826 160.177 26.2686 160.342 25.7566C160.513 25.2446 160.758 24.8046 161.078 24.4366C161.403 24.0633 161.801 23.7726 162.27 23.5646C162.745 23.3566 163.289 23.2526 163.902 23.2526C164.473 23.2526 164.974 23.346 165.406 23.5326C165.843 23.714 166.23 23.9726 166.566 24.3086L166.19 24.8206ZM170.679 31.6126C170.039 31.6126 169.545 31.434 169.199 31.0766C168.857 30.7193 168.687 30.2046 168.687 29.5326V24.5726H167.711C167.625 24.5726 167.553 24.5486 167.495 24.5006C167.436 24.4473 167.407 24.3673 167.407 24.2606V23.6926L168.735 23.5246L169.062 21.0206C169.079 20.9406 169.113 20.8766 169.167 20.8286C169.225 20.7753 169.3 20.7486 169.391 20.7486H170.111V23.5406H172.455V24.5726H170.111V29.4366C170.111 29.778 170.193 30.0313 170.359 30.1966C170.524 30.362 170.737 30.4446 170.999 30.4446C171.148 30.4446 171.276 30.426 171.383 30.3886C171.495 30.346 171.591 30.3006 171.671 30.2526C171.751 30.2046 171.817 30.162 171.871 30.1246C171.929 30.082 171.98 30.0606 172.023 30.0606C172.097 30.0606 172.164 30.106 172.223 30.1966L172.639 30.8766C172.393 31.106 172.097 31.2873 171.751 31.4206C171.404 31.5486 171.047 31.6126 170.679 31.6126Z" fill="#F26376"/>
</svg>
