<svg width="169" height="37" viewBox="0 0 169 37" fill="none" xmlns="http://www.w3.org/2000/svg">
<path d="M0 35V32.31H32V35H0ZM0 24.76V22.07H32V24.76H0ZM0 14.69V12H32V14.69H0Z" fill="#E8E8E8"/>
<path d="M154.2 37C153.552 36.9738 152.94 36.6948 152.496 36.2227C152.052 35.7506 151.81 35.1232 151.823 34.475C151.836 33.8269 152.103 33.2097 152.566 32.7559C153.029 32.3022 153.652 32.048 154.3 32.048C154.948 32.048 155.571 32.3022 156.034 32.7559C156.497 33.2097 156.763 33.8269 156.776 34.475C156.789 35.1232 156.548 35.7506 156.104 36.2227C155.659 36.6948 155.048 36.9738 154.4 37H154.2ZM134.752 34.32C134.752 33.79 134.909 33.2718 135.203 32.8311C135.498 32.3904 135.917 32.0469 136.406 31.844C136.896 31.6412 137.435 31.5881 137.955 31.6915C138.475 31.7949 138.952 32.0502 139.327 32.425C139.702 32.7998 139.957 33.2773 140.06 33.7972C140.164 34.317 140.111 34.8559 139.908 35.3456C139.705 35.8353 139.361 36.2539 138.921 36.5483C138.48 36.8428 137.962 37 137.432 37C137.08 37.0003 136.731 36.9311 136.406 36.7966C136.08 36.662 135.785 36.4646 135.536 36.2158C135.286 35.9669 135.089 35.6713 134.954 35.3461C134.819 35.0208 134.75 34.6721 134.75 34.32H134.752ZM138.552 28.686C138.292 28.6868 138.04 28.6024 137.833 28.4457C137.626 28.2891 137.476 28.0689 137.407 27.819L132.574 10.364H129.181C128.867 10.364 128.567 10.2395 128.345 10.0178C128.123 9.79614 127.999 9.49549 127.999 9.18201C127.999 8.86852 128.123 8.56787 128.345 8.3462C128.567 8.12454 128.867 8.00001 129.181 8.00001H133.462C133.721 7.99919 133.974 8.08372 134.181 8.24057C134.387 8.39742 134.537 8.61788 134.606 8.86801L139.439 26.323H152.617L157 16.275H142.4C142.242 16.2796 142.084 16.2524 141.937 16.1951C141.789 16.1377 141.655 16.0513 141.541 15.9411C141.428 15.8308 141.337 15.6989 141.276 15.5532C141.214 15.4074 141.182 15.2508 141.182 15.0925C141.182 14.9343 141.214 14.7776 141.276 14.6319C141.337 14.4861 141.428 14.3542 141.541 14.2439C141.655 14.1337 141.789 14.0473 141.937 13.9899C142.084 13.9326 142.242 13.9054 142.4 13.91H158.813C159.009 13.91 159.201 13.9587 159.373 14.0517C159.545 14.1448 159.692 14.2793 159.799 14.443C159.907 14.6073 159.972 14.7957 159.99 14.9914C160.007 15.1872 159.976 15.3842 159.899 15.565L154.494 27.977C154.402 28.1876 154.25 28.3668 154.057 28.4927C153.865 28.6186 153.64 28.6858 153.41 28.686H138.552Z" fill="#E8E8E8"/>
<path d="M159.5 19C164.747 19 169 14.7467 169 9.5C169 4.25329 164.747 0 159.5 0C154.253 0 150 4.25329 150 9.5C150 14.7467 154.253 19 159.5 19Z" fill="#F16D7F"/>
<path d="M71.5 27.937C76 27.937 79.656 23.464 79.656 17.968C79.656 12.472 76 8 71.5 8C70.3631 8.02174 69.2463 8.3034 68.2351 8.8234C67.2239 9.34339 66.3451 10.0879 65.666 11C64.1266 12.9957 63.3082 15.4538 63.344 17.974C63.344 23.465 67 27.937 71.5 27.937ZM71.5 9.813C75 9.813 77.844 13.472 77.844 17.969C77.844 22.466 74.998 26.125 71.5 26.125C68.002 26.125 65.156 22.465 65.155 17.969C65.154 13.473 68 9.813 71.5 9.813ZM77.844 26.125C77.6036 26.125 77.373 26.2205 77.203 26.3905C77.033 26.5605 76.9375 26.7911 76.9375 27.0315C76.9375 27.2719 77.033 27.5025 77.203 27.6725C77.373 27.8425 77.6036 27.938 77.844 27.938C79.526 27.9399 81.1386 28.6088 82.3279 29.7982C83.5172 30.9875 84.1861 32.6 84.188 34.282C84.1875 34.5221 84.0918 34.7523 83.922 34.9221C83.7522 35.0918 83.5221 35.1875 83.282 35.188H59.72C59.4798 35.1875 59.2497 35.0918 59.08 34.9221C58.9102 34.7523 58.8145 34.5221 58.814 34.282C58.8161 32.6001 59.4852 30.9877 60.6744 29.7985C61.8637 28.6092 63.4761 27.9401 65.158 27.938C65.3982 27.938 65.6287 27.8425 65.7986 27.6726C65.9685 27.5027 66.064 27.2723 66.064 27.032C66.064 26.7917 65.9685 26.5613 65.7986 26.3914C65.6287 26.2215 65.3982 26.126 65.158 26.126C62.9954 26.1279 60.922 26.9875 59.3926 28.5164C57.8631 30.0453 57.0026 32.1185 57 34.281C57.0008 35.0019 57.2875 35.693 57.7972 36.2027C58.307 36.7125 58.9981 36.9992 59.719 37H83.282C84.0027 36.9989 84.6936 36.7121 85.2031 36.2024C85.7126 35.6927 85.9992 35.0017 86 34.281C85.9974 32.1187 85.1372 30.0457 83.6083 28.5168C82.0793 26.9878 80.0063 26.1276 77.844 26.125Z" fill="#E8E8E8"/>
<path d="M158.812 7.648C159.26 7.552 159.672 7.504 160.048 7.504C160.496 7.504 160.892 7.57 161.236 7.702C161.58 7.834 161.866 8.016 162.094 8.248C162.326 8.48 162.5 8.754 162.616 9.07C162.736 9.386 162.796 9.73 162.796 10.102C162.796 10.558 162.716 10.97 162.556 11.338C162.4 11.706 162.182 12.022 161.902 12.286C161.626 12.546 161.3 12.746 160.924 12.886C160.548 13.026 160.142 13.096 159.706 13.096C159.454 13.096 159.212 13.07 158.98 13.018C158.748 12.97 158.53 12.904 158.326 12.82C158.126 12.736 157.94 12.64 157.768 12.532C157.596 12.424 157.444 12.31 157.312 12.19L157.642 11.734C157.714 11.63 157.808 11.578 157.924 11.578C158.004 11.578 158.094 11.61 158.194 11.674C158.294 11.734 158.416 11.802 158.56 11.878C158.704 11.954 158.872 12.024 159.064 12.088C159.26 12.148 159.492 12.178 159.76 12.178C160.06 12.178 160.33 12.13 160.57 12.034C160.81 11.938 161.016 11.802 161.188 11.626C161.36 11.446 161.492 11.232 161.584 10.984C161.676 10.736 161.722 10.458 161.722 10.15C161.722 9.882 161.682 9.64 161.602 9.424C161.526 9.208 161.408 9.024 161.248 8.872C161.092 8.72 160.896 8.602 160.66 8.518C160.424 8.434 160.148 8.392 159.832 8.392C159.616 8.392 159.39 8.41 159.154 8.446C158.922 8.482 158.684 8.54 158.44 8.62L157.768 8.422L158.458 4.402H162.532V4.87C162.532 5.022 162.484 5.148 162.388 5.248C162.296 5.344 162.136 5.392 161.908 5.392H159.208L158.812 7.648Z" fill="white"/>
</svg>
