<svg width="26" height="27" viewBox="0 0 26 27" fill="none" xmlns="http://www.w3.org/2000/svg">
<path d="M18.0589 17.6249C19.6705 15.8648 20.6275 13.6038 20.769 11.2215C20.9106 8.8392 20.2281 6.48075 18.8362 4.5422C17.4443 2.60365 15.4278 1.20306 13.1252 0.575643C10.8227 -0.0517774 8.37437 0.132183 6.19143 1.09663C4.0085 2.06108 2.22389 3.74727 1.1373 5.87205C0.0507149 7.99682 -0.271678 10.4308 0.224264 12.7652C0.720206 15.0996 2.00428 17.1922 3.86085 18.6917C5.71741 20.1912 8.0334 21.0063 10.4199 20.9999C12.6723 21.003 14.8638 20.269 16.6599 18.9099L24.4079 26.7169C24.4934 26.806 24.5958 26.8771 24.7091 26.926C24.8225 26.975 24.9444 27.0008 25.0679 27.0019C25.1916 27.0023 25.314 26.9772 25.4276 26.9282C25.5411 26.8792 25.6434 26.8072 25.7279 26.7169C25.9018 26.536 25.999 26.2949 25.999 26.0439C25.999 25.793 25.9018 25.5518 25.7279 25.3709L18.0589 17.6249ZM1.88589 10.4999C1.89873 8.81465 2.41021 7.17089 3.35586 5.77587C4.30151 4.38086 5.63899 3.29703 7.1997 2.66102C8.76042 2.02501 10.4745 1.86529 12.1258 2.202C13.7772 2.53871 15.2919 3.35678 16.479 4.55307C17.6661 5.74935 18.4725 7.27031 18.7965 8.92421C19.1204 10.5781 18.9475 12.2909 18.2995 13.8467C17.6515 15.4024 16.5574 16.7315 15.1551 17.6664C13.7529 18.6013 12.1052 19.1001 10.4199 19.0999C8.14843 19.0891 5.97409 18.1774 4.3741 16.5651C2.77412 14.9527 1.87924 12.7714 1.88589 10.4999Z" fill="#E8E8E8"/>
</svg>
