<svg width="148" height="32" viewBox="0 0 148 32" fill="none" xmlns="http://www.w3.org/2000/svg">
<path d="M31.4506 0H0V32H31.4506V0Z" fill="white"/>
<path d="M19.0884 16.28L19.5069 13.616H16.8902V11.8873C16.8902 11.1585 17.2557 10.4481 18.4277 10.4481H19.6172V8.17997C19.6172 8.17997 18.5377 8 17.5056 8C15.3507 8 13.9422 9.27593 13.9422 11.5857V13.616H11.5469V16.28H13.9422V22.72H16.8902V16.28H19.0884Z" fill="black"/>
<path d="M70.1883 0H38.7377V32H70.1883V0Z" fill="#F16D7F"/>
<g clip-path="url(#clip0_190_1689)">
<path d="M54.1368 12.6817C52.0216 12.6817 50.3155 14.385 50.3155 16.4967C50.3155 18.6084 52.0216 20.3117 54.1368 20.3117C56.2519 20.3117 57.958 18.6084 57.958 16.4967C57.958 14.385 56.2519 12.6817 54.1368 12.6817ZM54.1368 18.977C52.7699 18.977 51.6525 17.8647 51.6525 16.4967C51.6525 15.1287 52.7666 14.0164 54.1368 14.0164C55.507 14.0164 56.6211 15.1287 56.6211 16.4967C56.6211 17.8647 55.5036 18.977 54.1368 18.977ZM59.0056 12.5256C59.0056 13.0203 58.6065 13.4154 58.1143 13.4154C57.6188 13.4154 57.223 13.017 57.223 12.5256C57.223 12.0342 57.6221 11.6358 58.1143 11.6358C58.6065 11.6358 59.0056 12.0342 59.0056 12.5256ZM61.5364 13.4287C61.4799 12.2367 61.2072 11.1809 60.3325 10.3109C59.4612 9.44103 58.4036 9.16876 57.2097 9.109C55.9792 9.03927 52.291 9.03927 51.0605 9.109C49.8699 9.16544 48.8123 9.43771 47.9377 10.3076C47.063 11.1776 46.7936 12.2334 46.7338 13.4254C46.6639 14.6539 46.6639 18.3361 46.7338 19.5647C46.7903 20.7567 47.063 21.8125 47.9377 22.6824C48.8123 23.5524 49.8666 23.8246 51.0605 23.8844C52.291 23.9541 55.9792 23.9541 57.2097 23.8844C58.4036 23.8279 59.4612 23.5557 60.3325 22.6824C61.2039 21.8125 61.4766 20.7567 61.5364 19.5647C61.6063 18.3361 61.6063 14.6572 61.5364 13.4287ZM59.9468 20.8828C59.6874 21.5336 59.1852 22.035 58.53 22.2973C57.5489 22.6858 55.2209 22.5961 54.1368 22.5961C53.0526 22.5961 50.7213 22.6824 49.7435 22.2973C49.0917 22.0383 48.5895 21.5369 48.3268 20.8828C47.9377 19.9033 48.0275 17.5791 48.0275 16.4967C48.0275 15.4143 47.941 13.0867 48.3268 12.1106C48.5862 11.4598 49.0884 10.9584 49.7435 10.6961C50.7246 10.3076 53.0526 10.3973 54.1368 10.3973C55.2209 10.3973 57.5523 10.3109 58.53 10.6961C59.1818 10.9551 59.684 11.4565 59.9468 12.1106C60.3359 13.0901 60.2461 15.4143 60.2461 16.4967C60.2461 17.5791 60.3359 19.9067 59.9468 20.8828Z" fill="white"/>
</g>
<path d="M147.664 0H116.213V32H147.664V0Z" fill="white"/>
<g clip-path="url(#clip1_190_1689)">
<path d="M138.418 12.7411C138.428 12.8832 138.428 13.0253 138.428 13.1675C138.428 17.5025 135.151 22.4974 129.161 22.4974C127.316 22.4974 125.601 21.9593 124.159 21.0253C124.421 21.0558 124.674 21.0659 124.946 21.0659C126.469 21.0659 127.87 20.5482 128.99 19.6649C127.558 19.6345 126.358 18.6903 125.944 17.3908C126.146 17.4213 126.348 17.4416 126.559 17.4416C126.852 17.4416 127.144 17.4009 127.416 17.3299C125.924 17.0253 124.805 15.7055 124.805 14.1116V14.071C125.238 14.3147 125.742 14.467 126.277 14.4873C125.4 13.8984 124.825 12.8933 124.825 11.7563C124.825 11.1472 124.986 10.5888 125.269 10.1015C126.872 12.0913 129.282 13.3908 131.984 13.5329C131.934 13.2893 131.904 13.0355 131.904 12.7817C131.904 10.9746 133.356 9.5025 135.161 9.5025C136.099 9.5025 136.946 9.89844 137.541 10.538C138.277 10.3959 138.983 10.1218 139.608 9.74616C139.366 10.5076 138.852 11.1472 138.176 11.5533C138.831 11.4822 139.467 11.2994 140.052 11.0457C139.608 11.6954 139.053 12.274 138.418 12.7411Z" fill="black"/>
</g>
<path d="M108.926 0H77.4753V32H108.926V0Z" fill="white"/>
<g clip-path="url(#clip2_190_1689)">
<path d="M93.7402 8.20312C90.5555 8.20312 87.4081 10.3406 87.4081 13.8C87.4081 16 88.6373 17.25 89.3822 17.25C89.6895 17.25 89.8664 16.3875 89.8664 16.1438C89.8664 15.8531 89.1308 15.2344 89.1308 14.025C89.1308 11.5125 91.0304 9.73125 93.4888 9.73125C95.6026 9.73125 97.167 10.9406 97.167 13.1625C97.167 14.8219 96.5058 17.9344 94.3641 17.9344C93.5912 17.9344 92.9301 17.3719 92.9301 16.5656C92.9301 15.3844 93.7495 14.2406 93.7495 13.0219C93.7495 10.9531 90.8349 11.3281 90.8349 13.8281C90.8349 14.3531 90.9001 14.9344 91.1329 15.4125C90.7045 17.2688 89.8292 20.0344 89.8292 21.9469C89.8292 22.5375 89.913 23.1188 89.9689 23.7094C90.0744 23.8281 90.0216 23.8156 90.183 23.7563C91.7474 21.6 91.6916 21.1781 92.3993 18.3562C92.7811 19.0875 93.7681 19.4812 94.5503 19.4812C97.8468 19.4812 99.3274 16.2469 99.3274 13.3313C99.3274 10.2281 96.6641 8.20312 93.7402 8.20312Z" fill="black"/>
</g>
<defs>
<clipPath id="clip0_190_1689">
<rect width="14.8991" height="17" fill="white" transform="translate(46.684 8)"/>
</clipPath>
<clipPath id="clip1_190_1689">
<rect width="15.8924" height="16" fill="white" transform="translate(124.159 8)"/>
</clipPath>
<clipPath id="clip2_190_1689">
<rect width="11.9193" height="16" fill="white" transform="translate(87.4081 8)"/>
</clipPath>
</defs>
</svg>
