<svg width="557" height="143" viewBox="0 0 557 143" fill="none" xmlns="http://www.w3.org/2000/svg">
<path d="M414.59 118.5C414.59 104.969 404.644 94 392.376 94H253.295H114.214C101.946 94 92 104.969 92 118.5C92 132.031 101.946 143 114.214 143H392.376C404.644 143 414.59 132.031 414.59 118.5Z" fill="#E1E1E1"/>
<path d="M348 94H425.885C431.75 94 437.375 96.5813 441.523 101.176C445.67 105.771 448 112.002 448 118.5C448 124.998 445.67 131.229 441.523 135.824C437.375 140.419 431.75 143 425.885 143H348V94Z" fill="#F16D7F"/>
<path d="M375.141 115.537C375.099 115.607 375.053 115.661 375.001 115.698C374.955 115.731 374.896 115.747 374.826 115.747C374.747 115.747 374.654 115.707 374.546 115.628C374.439 115.549 374.304 115.462 374.14 115.369C373.982 115.271 373.788 115.182 373.559 115.103C373.335 115.024 373.062 114.984 372.74 114.984C372.437 114.984 372.169 115.026 371.935 115.11C371.707 115.189 371.513 115.299 371.354 115.439C371.2 115.579 371.084 115.745 371.004 115.936C370.925 116.123 370.885 116.326 370.885 116.545C370.885 116.825 370.953 117.058 371.088 117.245C371.228 117.427 371.41 117.583 371.634 117.714C371.863 117.845 372.12 117.959 372.404 118.057C372.694 118.15 372.988 118.248 373.286 118.351C373.59 118.454 373.884 118.57 374.168 118.701C374.458 118.827 374.714 118.988 374.938 119.184C375.167 119.38 375.349 119.62 375.484 119.905C375.624 120.19 375.694 120.54 375.694 120.955C375.694 121.394 375.62 121.807 375.47 122.194C375.321 122.577 375.102 122.91 374.812 123.195C374.528 123.48 374.175 123.704 373.755 123.867C373.34 124.03 372.866 124.112 372.334 124.112C371.681 124.112 371.088 123.995 370.556 123.762C370.024 123.524 369.569 123.204 369.191 122.803L369.583 122.159C369.621 122.108 369.665 122.066 369.716 122.033C369.772 121.996 369.833 121.977 369.898 121.977C369.959 121.977 370.027 122.003 370.101 122.054C370.181 122.101 370.269 122.161 370.367 122.236C370.465 122.311 370.577 122.392 370.703 122.481C370.829 122.57 370.972 122.651 371.13 122.726C371.294 122.801 371.478 122.864 371.683 122.915C371.889 122.962 372.12 122.985 372.376 122.985C372.698 122.985 372.985 122.941 373.237 122.852C373.489 122.763 373.702 122.64 373.874 122.481C374.052 122.318 374.187 122.124 374.28 121.9C374.374 121.676 374.42 121.426 374.42 121.151C374.42 120.848 374.35 120.6 374.21 120.409C374.075 120.213 373.895 120.05 373.671 119.919C373.447 119.788 373.191 119.679 372.901 119.59C372.612 119.497 372.318 119.403 372.019 119.31C371.721 119.212 371.427 119.1 371.137 118.974C370.848 118.848 370.591 118.685 370.367 118.484C370.143 118.283 369.961 118.034 369.821 117.735C369.686 117.432 369.618 117.058 369.618 116.615C369.618 116.26 369.686 115.917 369.821 115.586C369.961 115.255 370.162 114.961 370.423 114.704C370.689 114.447 371.014 114.242 371.396 114.088C371.784 113.934 372.227 113.857 372.726 113.857C373.286 113.857 373.795 113.946 374.252 114.123C374.714 114.3 375.12 114.557 375.47 114.893L375.141 115.537ZM383.012 116.909V124H382.27C382.093 124 381.981 123.914 381.934 123.741L381.836 122.978C381.528 123.319 381.183 123.594 380.8 123.804C380.418 124.009 379.979 124.112 379.484 124.112C379.097 124.112 378.754 124.049 378.455 123.923C378.161 123.792 377.914 123.61 377.713 123.377C377.513 123.144 377.361 122.861 377.258 122.53C377.16 122.199 377.111 121.832 377.111 121.431V116.909H378.357V121.431C378.357 121.968 378.479 122.383 378.721 122.677C378.969 122.971 379.344 123.118 379.848 123.118C380.217 123.118 380.56 123.032 380.877 122.859C381.199 122.682 381.496 122.439 381.766 122.131V116.909H383.012ZM386.241 122.292C386.47 122.6 386.719 122.817 386.99 122.943C387.265 123.069 387.566 123.132 387.893 123.132C388.56 123.132 389.071 122.896 389.426 122.425C389.781 121.954 389.958 121.251 389.958 120.318C389.958 119.45 389.799 118.813 389.482 118.407C389.169 117.996 388.721 117.791 388.138 117.791C387.732 117.791 387.377 117.884 387.074 118.071C386.775 118.258 386.498 118.521 386.241 118.862V122.292ZM386.241 117.931C386.54 117.586 386.876 117.31 387.249 117.105C387.627 116.9 388.061 116.797 388.551 116.797C388.966 116.797 389.34 116.876 389.671 117.035C390.007 117.194 390.292 117.425 390.525 117.728C390.758 118.027 390.936 118.391 391.057 118.82C391.183 119.249 391.246 119.732 391.246 120.269C391.246 120.843 391.176 121.366 391.036 121.837C390.896 122.308 390.693 122.712 390.427 123.048C390.166 123.379 389.846 123.638 389.468 123.825C389.09 124.007 388.665 124.098 388.194 124.098C387.727 124.098 387.333 124.012 387.011 123.839C386.694 123.662 386.416 123.412 386.178 123.09L386.115 123.734C386.078 123.911 385.97 124 385.793 124H384.988V113.689H386.241V117.931ZM396.952 118.078C396.896 118.181 396.81 118.232 396.693 118.232C396.623 118.232 396.544 118.206 396.455 118.155C396.366 118.104 396.257 118.048 396.126 117.987C396 117.922 395.848 117.863 395.671 117.812C395.494 117.756 395.284 117.728 395.041 117.728C394.831 117.728 394.642 117.756 394.474 117.812C394.306 117.863 394.161 117.936 394.04 118.029C393.923 118.122 393.832 118.232 393.767 118.358C393.706 118.479 393.676 118.612 393.676 118.757C393.676 118.939 393.727 119.091 393.83 119.212C393.937 119.333 394.077 119.438 394.25 119.527C394.423 119.616 394.619 119.695 394.838 119.765C395.057 119.83 395.281 119.903 395.51 119.982C395.743 120.057 395.97 120.141 396.189 120.234C396.408 120.327 396.604 120.444 396.777 120.584C396.95 120.724 397.087 120.897 397.19 121.102C397.297 121.303 397.351 121.545 397.351 121.83C397.351 122.157 397.293 122.46 397.176 122.74C397.059 123.015 396.887 123.256 396.658 123.461C396.429 123.662 396.149 123.82 395.818 123.937C395.487 124.054 395.104 124.112 394.67 124.112C394.175 124.112 393.727 124.033 393.326 123.874C392.925 123.711 392.584 123.503 392.304 123.251L392.598 122.775C392.635 122.714 392.68 122.668 392.731 122.635C392.782 122.602 392.848 122.586 392.927 122.586C393.011 122.586 393.1 122.619 393.193 122.684C393.286 122.749 393.398 122.822 393.529 122.901C393.664 122.98 393.828 123.053 394.019 123.118C394.21 123.183 394.448 123.216 394.733 123.216C394.976 123.216 395.188 123.186 395.37 123.125C395.552 123.06 395.704 122.973 395.825 122.866C395.946 122.759 396.035 122.635 396.091 122.495C396.152 122.355 396.182 122.206 396.182 122.047C396.182 121.851 396.128 121.69 396.021 121.564C395.918 121.433 395.781 121.324 395.608 121.235C395.435 121.142 395.237 121.062 395.013 120.997C394.794 120.927 394.567 120.855 394.334 120.78C394.105 120.705 393.879 120.621 393.655 120.528C393.436 120.43 393.24 120.309 393.067 120.164C392.894 120.019 392.754 119.842 392.647 119.632C392.544 119.417 392.493 119.158 392.493 118.855C392.493 118.584 392.549 118.325 392.661 118.078C392.773 117.826 392.936 117.607 393.151 117.42C393.366 117.229 393.629 117.077 393.942 116.965C394.255 116.853 394.612 116.797 395.013 116.797C395.48 116.797 395.897 116.872 396.266 117.021C396.639 117.166 396.961 117.366 397.232 117.623L396.952 118.078ZM403.814 118.169C403.776 118.22 403.739 118.26 403.702 118.288C403.664 118.316 403.613 118.33 403.548 118.33C403.478 118.33 403.401 118.302 403.317 118.246C403.233 118.185 403.128 118.12 403.002 118.05C402.88 117.98 402.729 117.917 402.547 117.861C402.369 117.8 402.15 117.77 401.889 117.77C401.539 117.77 401.231 117.833 400.965 117.959C400.699 118.08 400.475 118.258 400.293 118.491C400.115 118.724 399.98 119.007 399.887 119.338C399.798 119.669 399.754 120.04 399.754 120.451C399.754 120.88 399.803 121.263 399.901 121.599C399.999 121.93 400.136 122.21 400.314 122.439C400.496 122.663 400.713 122.836 400.965 122.957C401.221 123.074 401.508 123.132 401.826 123.132C402.129 123.132 402.379 123.097 402.575 123.027C402.771 122.952 402.932 122.871 403.058 122.782C403.188 122.693 403.296 122.614 403.38 122.544C403.468 122.469 403.555 122.432 403.639 122.432C403.741 122.432 403.821 122.472 403.877 122.551L404.227 123.006C404.073 123.197 403.898 123.361 403.702 123.496C403.506 123.631 403.293 123.746 403.065 123.839C402.841 123.928 402.605 123.993 402.358 124.035C402.11 124.077 401.858 124.098 401.602 124.098C401.158 124.098 400.745 124.016 400.363 123.853C399.985 123.69 399.656 123.454 399.376 123.146C399.096 122.833 398.876 122.451 398.718 121.998C398.559 121.545 398.48 121.03 398.48 120.451C398.48 119.924 398.552 119.436 398.697 118.988C398.846 118.54 399.061 118.155 399.341 117.833C399.625 117.506 399.973 117.252 400.384 117.07C400.799 116.888 401.275 116.797 401.812 116.797C402.311 116.797 402.75 116.879 403.128 117.042C403.51 117.201 403.849 117.427 404.143 117.721L403.814 118.169ZM406.747 118.33C406.971 117.845 407.246 117.467 407.573 117.196C407.9 116.921 408.299 116.783 408.77 116.783C408.919 116.783 409.062 116.799 409.197 116.832C409.337 116.865 409.461 116.916 409.568 116.986L409.477 117.917C409.449 118.034 409.379 118.092 409.267 118.092C409.202 118.092 409.106 118.078 408.98 118.05C408.854 118.022 408.712 118.008 408.553 118.008C408.329 118.008 408.128 118.041 407.951 118.106C407.778 118.171 407.622 118.269 407.482 118.4C407.347 118.526 407.223 118.685 407.111 118.876C407.004 119.063 406.906 119.277 406.817 119.52V124H405.564V116.909H406.278C406.413 116.909 406.507 116.935 406.558 116.986C406.609 117.037 406.644 117.126 406.663 117.252L406.747 118.33ZM411.98 116.909V124H410.734V116.909H411.98ZM412.246 114.683C412.246 114.804 412.22 114.919 412.169 115.026C412.122 115.129 412.057 115.222 411.973 115.306C411.893 115.385 411.798 115.448 411.686 115.495C411.578 115.542 411.464 115.565 411.343 115.565C411.221 115.565 411.107 115.542 411 115.495C410.897 115.448 410.806 115.385 410.727 115.306C410.647 115.222 410.584 115.129 410.538 115.026C410.491 114.919 410.468 114.804 410.468 114.683C410.468 114.562 410.491 114.447 410.538 114.34C410.584 114.228 410.647 114.132 410.727 114.053C410.806 113.969 410.897 113.904 411 113.857C411.107 113.81 411.221 113.787 411.343 113.787C411.464 113.787 411.578 113.81 411.686 113.857C411.798 113.904 411.893 113.969 411.973 114.053C412.057 114.132 412.122 114.228 412.169 114.34C412.22 114.447 412.246 114.562 412.246 114.683ZM415.28 122.292C415.509 122.6 415.758 122.817 416.029 122.943C416.304 123.069 416.605 123.132 416.932 123.132C417.599 123.132 418.11 122.896 418.465 122.425C418.82 121.954 418.997 121.251 418.997 120.318C418.997 119.45 418.838 118.813 418.521 118.407C418.208 117.996 417.76 117.791 417.177 117.791C416.771 117.791 416.416 117.884 416.113 118.071C415.814 118.258 415.537 118.521 415.28 118.862V122.292ZM415.28 117.931C415.579 117.586 415.915 117.31 416.288 117.105C416.666 116.9 417.1 116.797 417.59 116.797C418.005 116.797 418.379 116.876 418.71 117.035C419.046 117.194 419.331 117.425 419.564 117.728C419.797 118.027 419.975 118.391 420.096 118.82C420.222 119.249 420.285 119.732 420.285 120.269C420.285 120.843 420.215 121.366 420.075 121.837C419.935 122.308 419.732 122.712 419.466 123.048C419.205 123.379 418.885 123.638 418.507 123.825C418.129 124.007 417.704 124.098 417.233 124.098C416.766 124.098 416.372 124.012 416.05 123.839C415.733 123.662 415.455 123.412 415.217 123.09L415.154 123.734C415.117 123.911 415.009 124 414.832 124H414.027V113.689H415.28V117.931ZM426.607 119.681C426.607 119.392 426.565 119.128 426.481 118.89C426.402 118.647 426.283 118.44 426.124 118.267C425.97 118.09 425.781 117.954 425.557 117.861C425.333 117.763 425.079 117.714 424.794 117.714C424.197 117.714 423.723 117.889 423.373 118.239C423.028 118.584 422.813 119.065 422.729 119.681H426.607ZM427.615 123.006C427.461 123.193 427.277 123.356 427.062 123.496C426.847 123.631 426.616 123.743 426.369 123.832C426.126 123.921 425.874 123.986 425.613 124.028C425.352 124.075 425.093 124.098 424.836 124.098C424.346 124.098 423.893 124.016 423.478 123.853C423.067 123.685 422.71 123.442 422.407 123.125C422.108 122.803 421.875 122.406 421.707 121.935C421.539 121.464 421.455 120.922 421.455 120.311C421.455 119.816 421.53 119.354 421.679 118.925C421.833 118.496 422.052 118.125 422.337 117.812C422.622 117.495 422.969 117.247 423.38 117.07C423.791 116.888 424.253 116.797 424.766 116.797C425.191 116.797 425.583 116.869 425.942 117.014C426.306 117.154 426.619 117.359 426.88 117.63C427.146 117.896 427.354 118.227 427.503 118.624C427.652 119.016 427.727 119.464 427.727 119.968C427.727 120.164 427.706 120.295 427.664 120.36C427.622 120.425 427.543 120.458 427.426 120.458H422.687C422.701 120.906 422.762 121.296 422.869 121.627C422.981 121.958 423.135 122.236 423.331 122.46C423.527 122.679 423.76 122.845 424.031 122.957C424.302 123.064 424.605 123.118 424.941 123.118C425.254 123.118 425.522 123.083 425.746 123.013C425.975 122.938 426.171 122.859 426.334 122.775C426.497 122.691 426.633 122.614 426.74 122.544C426.852 122.469 426.948 122.432 427.027 122.432C427.13 122.432 427.209 122.472 427.265 122.551L427.615 123.006Z" fill="white"/>
<path opacity="0.671" d="M121.469 122.894L121.462 124H115.281V113.969H121.462V115.075H116.639V118.407H120.545V119.471H116.639V122.894H121.469ZM124.052 117.938C124.206 117.765 124.369 117.609 124.542 117.469C124.714 117.329 124.896 117.21 125.088 117.112C125.284 117.009 125.489 116.932 125.704 116.881C125.923 116.825 126.159 116.797 126.411 116.797C126.798 116.797 127.139 116.862 127.433 116.993C127.731 117.119 127.979 117.301 128.175 117.539C128.375 117.772 128.527 118.055 128.63 118.386C128.732 118.717 128.784 119.084 128.784 119.485V124H127.531V119.485C127.531 118.948 127.407 118.533 127.16 118.239C126.917 117.94 126.546 117.791 126.047 117.791C125.678 117.791 125.333 117.88 125.011 118.057C124.693 118.234 124.399 118.475 124.129 118.778V124H122.876V116.909H123.625C123.802 116.909 123.912 116.995 123.954 117.168L124.052 117.938ZM132.764 124.112C132.204 124.112 131.772 123.956 131.469 123.643C131.17 123.33 131.021 122.88 131.021 122.292V117.952H130.167C130.092 117.952 130.029 117.931 129.978 117.889C129.926 117.842 129.901 117.772 129.901 117.679V117.182L131.063 117.035L131.35 114.844C131.364 114.774 131.394 114.718 131.441 114.676C131.492 114.629 131.557 114.606 131.637 114.606H132.267V117.049H134.318V117.952H132.267V122.208C132.267 122.507 132.339 122.728 132.484 122.873C132.628 123.018 132.815 123.09 133.044 123.09C133.174 123.09 133.286 123.074 133.38 123.041C133.478 123.004 133.562 122.964 133.632 122.922C133.702 122.88 133.76 122.843 133.807 122.81C133.858 122.773 133.902 122.754 133.94 122.754C134.005 122.754 134.063 122.794 134.115 122.873L134.479 123.468C134.264 123.669 134.005 123.827 133.702 123.944C133.398 124.056 133.086 124.112 132.764 124.112ZM140.309 119.681C140.309 119.392 140.267 119.128 140.183 118.89C140.104 118.647 139.985 118.44 139.826 118.267C139.672 118.09 139.483 117.954 139.259 117.861C139.035 117.763 138.781 117.714 138.496 117.714C137.899 117.714 137.425 117.889 137.075 118.239C136.73 118.584 136.515 119.065 136.431 119.681H140.309ZM141.317 123.006C141.163 123.193 140.979 123.356 140.764 123.496C140.55 123.631 140.319 123.743 140.071 123.832C139.829 123.921 139.577 123.986 139.315 124.028C139.054 124.075 138.795 124.098 138.538 124.098C138.048 124.098 137.596 124.016 137.18 123.853C136.77 123.685 136.413 123.442 136.109 123.125C135.811 122.803 135.577 122.406 135.409 121.935C135.241 121.464 135.157 120.922 135.157 120.311C135.157 119.816 135.232 119.354 135.381 118.925C135.535 118.496 135.755 118.125 136.039 117.812C136.324 117.495 136.672 117.247 137.082 117.07C137.493 116.888 137.955 116.797 138.468 116.797C138.893 116.797 139.285 116.869 139.644 117.014C140.008 117.154 140.321 117.359 140.582 117.63C140.848 117.896 141.056 118.227 141.205 118.624C141.355 119.016 141.429 119.464 141.429 119.968C141.429 120.164 141.408 120.295 141.366 120.36C141.324 120.425 141.245 120.458 141.128 120.458H136.389C136.403 120.906 136.464 121.296 136.571 121.627C136.683 121.958 136.837 122.236 137.033 122.46C137.229 122.679 137.463 122.845 137.733 122.957C138.004 123.064 138.307 123.118 138.643 123.118C138.956 123.118 139.224 123.083 139.448 123.013C139.677 122.938 139.873 122.859 140.036 122.775C140.2 122.691 140.335 122.614 140.442 122.544C140.554 122.469 140.65 122.432 140.729 122.432C140.832 122.432 140.911 122.472 140.967 122.551L141.317 123.006ZM144.143 118.33C144.367 117.845 144.642 117.467 144.969 117.196C145.295 116.921 145.694 116.783 146.166 116.783C146.315 116.783 146.457 116.799 146.593 116.832C146.733 116.865 146.856 116.916 146.964 116.986L146.873 117.917C146.845 118.034 146.775 118.092 146.663 118.092C146.597 118.092 146.502 118.078 146.376 118.05C146.25 118.022 146.107 118.008 145.949 118.008C145.725 118.008 145.524 118.041 145.347 118.106C145.174 118.171 145.018 118.269 144.878 118.4C144.742 118.526 144.619 118.685 144.507 118.876C144.399 119.063 144.301 119.277 144.213 119.52V124H142.96V116.909H143.674C143.809 116.909 143.902 116.935 143.954 116.986C144.005 117.037 144.04 117.126 144.059 117.252L144.143 118.33ZM154.854 120.003V124H153.496V120.003L149.821 113.969H151.011C151.132 113.969 151.228 113.999 151.298 114.06C151.368 114.116 151.428 114.191 151.48 114.284L153.776 118.183C153.86 118.346 153.937 118.5 154.007 118.645C154.077 118.785 154.137 118.927 154.189 119.072C154.24 118.927 154.298 118.785 154.364 118.645C154.429 118.5 154.501 118.346 154.581 118.183L156.87 114.284C156.912 114.205 156.97 114.132 157.045 114.067C157.119 114.002 157.215 113.969 157.332 113.969H158.529L154.854 120.003ZM160.988 116.797C161.506 116.797 161.972 116.883 162.388 117.056C162.803 117.229 163.158 117.474 163.452 117.791C163.746 118.108 163.97 118.493 164.124 118.946C164.282 119.394 164.362 119.896 164.362 120.451C164.362 121.011 164.282 121.515 164.124 121.963C163.97 122.411 163.746 122.794 163.452 123.111C163.158 123.428 162.803 123.673 162.388 123.846C161.972 124.014 161.506 124.098 160.988 124.098C160.465 124.098 159.994 124.014 159.574 123.846C159.158 123.673 158.804 123.428 158.51 123.111C158.216 122.794 157.989 122.411 157.831 121.963C157.677 121.515 157.6 121.011 157.6 120.451C157.6 119.896 157.677 119.394 157.831 118.946C157.989 118.493 158.216 118.108 158.51 117.791C158.804 117.474 159.158 117.229 159.574 117.056C159.994 116.883 160.465 116.797 160.988 116.797ZM160.988 123.125C161.688 123.125 162.21 122.892 162.556 122.425C162.901 121.954 163.074 121.298 163.074 120.458C163.074 119.613 162.901 118.955 162.556 118.484C162.21 118.013 161.688 117.777 160.988 117.777C160.633 117.777 160.323 117.838 160.057 117.959C159.795 118.08 159.576 118.255 159.399 118.484C159.226 118.713 159.095 118.995 159.007 119.331C158.923 119.662 158.881 120.038 158.881 120.458C158.881 121.298 159.053 121.954 159.399 122.425C159.749 122.892 160.278 123.125 160.988 123.125ZM171.773 116.909V124H171.031C170.854 124 170.742 123.914 170.695 123.741L170.597 122.978C170.289 123.319 169.944 123.594 169.561 123.804C169.178 124.009 168.74 124.112 168.245 124.112C167.858 124.112 167.515 124.049 167.216 123.923C166.922 123.792 166.675 123.61 166.474 123.377C166.273 123.144 166.122 122.861 166.019 122.53C165.921 122.199 165.872 121.832 165.872 121.431V116.909H167.118V121.431C167.118 121.968 167.239 122.383 167.482 122.677C167.729 122.971 168.105 123.118 168.609 123.118C168.978 123.118 169.321 123.032 169.638 122.859C169.96 122.682 170.256 122.439 170.527 122.131V116.909H171.773ZM174.932 118.33C175.156 117.845 175.431 117.467 175.758 117.196C176.084 116.921 176.483 116.783 176.955 116.783C177.104 116.783 177.246 116.799 177.382 116.832C177.522 116.865 177.645 116.916 177.753 116.986L177.662 117.917C177.634 118.034 177.564 118.092 177.452 118.092C177.386 118.092 177.291 118.078 177.165 118.05C177.039 118.022 176.896 118.008 176.738 118.008C176.514 118.008 176.313 118.041 176.136 118.106C175.963 118.171 175.807 118.269 175.667 118.4C175.531 118.526 175.408 118.685 175.296 118.876C175.188 119.063 175.09 119.277 175.002 119.52V124H173.749V116.909H174.463C174.598 116.909 174.691 116.935 174.743 116.986C174.794 117.037 174.829 117.126 174.848 117.252L174.932 118.33ZM188.612 122.894L188.605 124H182.424V113.969H188.605V115.075H183.782V118.407H187.688V119.471H183.782V122.894H188.612ZM190.018 124V116.909H190.767C190.945 116.909 191.054 116.995 191.096 117.168L191.187 117.896C191.449 117.574 191.743 117.31 192.069 117.105C192.396 116.9 192.774 116.797 193.203 116.797C193.679 116.797 194.064 116.93 194.358 117.196C194.657 117.462 194.872 117.821 195.002 118.274C195.105 118.017 195.236 117.796 195.394 117.609C195.558 117.422 195.74 117.268 195.94 117.147C196.141 117.026 196.353 116.937 196.577 116.881C196.806 116.825 197.037 116.797 197.27 116.797C197.644 116.797 197.975 116.858 198.264 116.979C198.558 117.096 198.806 117.268 199.006 117.497C199.212 117.726 199.368 118.008 199.475 118.344C199.583 118.675 199.636 119.056 199.636 119.485V124H198.383V119.485C198.383 118.93 198.262 118.51 198.019 118.225C197.777 117.936 197.427 117.791 196.969 117.791C196.764 117.791 196.568 117.828 196.381 117.903C196.199 117.973 196.038 118.078 195.898 118.218C195.758 118.358 195.646 118.535 195.562 118.75C195.483 118.96 195.443 119.205 195.443 119.485V124H194.19V119.485C194.19 118.916 194.076 118.491 193.847 118.211C193.619 117.931 193.285 117.791 192.846 117.791C192.538 117.791 192.254 117.875 191.992 118.043C191.731 118.206 191.491 118.43 191.271 118.715V124H190.018ZM205.373 120.808C204.799 120.827 204.309 120.873 203.903 120.948C203.502 121.018 203.173 121.111 202.916 121.228C202.664 121.345 202.48 121.482 202.363 121.641C202.251 121.8 202.195 121.977 202.195 122.173C202.195 122.36 202.225 122.521 202.286 122.656C202.347 122.791 202.428 122.903 202.531 122.992C202.638 123.076 202.762 123.139 202.902 123.181C203.047 123.218 203.201 123.237 203.364 123.237C203.583 123.237 203.784 123.216 203.966 123.174C204.148 123.127 204.318 123.062 204.477 122.978C204.64 122.894 204.794 122.794 204.939 122.677C205.088 122.56 205.233 122.427 205.373 122.278V120.808ZM201.348 117.91C201.74 117.532 202.162 117.25 202.615 117.063C203.068 116.876 203.569 116.783 204.12 116.783C204.517 116.783 204.869 116.848 205.177 116.979C205.485 117.11 205.744 117.292 205.954 117.525C206.164 117.758 206.323 118.041 206.43 118.372C206.537 118.703 206.591 119.067 206.591 119.464V124H206.038C205.917 124 205.823 123.981 205.758 123.944C205.693 123.902 205.641 123.823 205.604 123.706L205.464 123.034C205.277 123.207 205.095 123.361 204.918 123.496C204.741 123.627 204.554 123.739 204.358 123.832C204.162 123.921 203.952 123.988 203.728 124.035C203.509 124.086 203.264 124.112 202.993 124.112C202.718 124.112 202.459 124.075 202.216 124C201.973 123.921 201.761 123.804 201.579 123.65C201.402 123.496 201.259 123.302 201.152 123.069C201.049 122.831 200.998 122.551 200.998 122.229C200.998 121.949 201.075 121.681 201.229 121.424C201.383 121.163 201.633 120.932 201.978 120.731C202.323 120.53 202.774 120.367 203.329 120.241C203.884 120.11 204.566 120.036 205.373 120.017V119.464C205.373 118.913 205.254 118.498 205.016 118.218C204.778 117.933 204.43 117.791 203.973 117.791C203.665 117.791 203.406 117.831 203.196 117.91C202.991 117.985 202.811 118.071 202.657 118.169C202.508 118.262 202.377 118.349 202.265 118.428C202.158 118.503 202.05 118.54 201.943 118.54C201.859 118.54 201.787 118.519 201.726 118.477C201.665 118.43 201.614 118.374 201.572 118.309L201.348 117.91ZM209.805 116.909V124H208.559V116.909H209.805ZM210.071 114.683C210.071 114.804 210.045 114.919 209.994 115.026C209.947 115.129 209.882 115.222 209.798 115.306C209.719 115.385 209.623 115.448 209.511 115.495C209.404 115.542 209.289 115.565 209.168 115.565C209.047 115.565 208.932 115.542 208.825 115.495C208.722 115.448 208.631 115.385 208.552 115.306C208.473 115.222 208.41 115.129 208.363 115.026C208.316 114.919 208.293 114.804 208.293 114.683C208.293 114.562 208.316 114.447 208.363 114.34C208.41 114.228 208.473 114.132 208.552 114.053C208.631 113.969 208.722 113.904 208.825 113.857C208.932 113.81 209.047 113.787 209.168 113.787C209.289 113.787 209.404 113.81 209.511 113.857C209.623 113.904 209.719 113.969 209.798 114.053C209.882 114.132 209.947 114.228 209.994 114.34C210.045 114.447 210.071 114.562 210.071 114.683ZM213.14 113.689V124H211.894V113.689H213.14Z" fill="#222224"/>
<path d="M222.77 14.804C222.674 14.972 222.57 15.096 222.458 15.176C222.354 15.248 222.222 15.284 222.062 15.284C221.894 15.284 221.71 15.224 221.51 15.104C221.318 14.976 221.086 14.836 220.814 14.684C220.542 14.532 220.222 14.396 219.854 14.276C219.494 14.148 219.066 14.084 218.57 14.084C218.122 14.084 217.73 14.14 217.394 14.252C217.058 14.356 216.774 14.504 216.542 14.696C216.318 14.888 216.15 15.12 216.038 15.392C215.926 15.656 215.87 15.948 215.87 16.268C215.87 16.676 215.982 17.016 216.206 17.288C216.438 17.56 216.742 17.792 217.118 17.984C217.494 18.176 217.922 18.348 218.402 18.5C218.882 18.652 219.374 18.816 219.878 18.992C220.382 19.16 220.874 19.36 221.354 19.592C221.834 19.816 222.262 20.104 222.638 20.456C223.014 20.8 223.314 21.224 223.538 21.728C223.77 22.232 223.886 22.844 223.886 23.564C223.886 24.348 223.75 25.084 223.478 25.772C223.214 26.452 222.822 27.048 222.302 27.56C221.79 28.064 221.162 28.464 220.418 28.76C219.674 29.048 218.822 29.192 217.862 29.192C217.31 29.192 216.766 29.136 216.23 29.024C215.694 28.92 215.178 28.768 214.682 28.568C214.194 28.368 213.734 28.128 213.302 27.848C212.87 27.568 212.486 27.256 212.15 26.912L213.098 25.364C213.178 25.252 213.282 25.16 213.41 25.088C213.538 25.008 213.674 24.968 213.818 24.968C214.018 24.968 214.234 25.052 214.466 25.22C214.698 25.38 214.974 25.56 215.294 25.76C215.614 25.96 215.986 26.144 216.41 26.312C216.842 26.472 217.358 26.552 217.958 26.552C218.878 26.552 219.59 26.336 220.094 25.904C220.598 25.464 220.85 24.836 220.85 24.02C220.85 23.564 220.734 23.192 220.502 22.904C220.278 22.616 219.978 22.376 219.602 22.184C219.226 21.984 218.798 21.816 218.318 21.68C217.838 21.544 217.35 21.396 216.854 21.236C216.358 21.076 215.87 20.884 215.39 20.66C214.91 20.436 214.482 20.144 214.106 19.784C213.73 19.424 213.426 18.976 213.194 18.44C212.97 17.896 212.858 17.228 212.858 16.436C212.858 15.804 212.982 15.188 213.23 14.588C213.486 13.988 213.854 13.456 214.334 12.992C214.814 12.528 215.406 12.156 216.11 11.876C216.814 11.596 217.622 11.456 218.534 11.456C219.558 11.456 220.502 11.616 221.366 11.936C222.23 12.256 222.966 12.704 223.574 13.28L222.77 14.804ZM233.686 26.396C234.31 26.396 234.866 26.292 235.354 26.084C235.85 25.876 236.266 25.584 236.602 25.208C236.938 24.832 237.194 24.376 237.37 23.84C237.554 23.304 237.646 22.704 237.646 22.04V11.648H240.874V22.04C240.874 23.072 240.706 24.028 240.37 24.908C240.042 25.78 239.566 26.536 238.942 27.176C238.326 27.808 237.574 28.304 236.686 28.664C235.798 29.016 234.798 29.192 233.686 29.192C232.566 29.192 231.562 29.016 230.674 28.664C229.786 28.304 229.03 27.808 228.406 27.176C227.79 26.536 227.314 25.78 226.978 24.908C226.65 24.028 226.486 23.072 226.486 22.04V11.648H229.714V22.028C229.714 22.692 229.802 23.292 229.978 23.828C230.162 24.364 230.422 24.824 230.758 25.208C231.102 25.584 231.518 25.876 232.006 26.084C232.502 26.292 233.062 26.396 233.686 26.396ZM251.006 26.48C251.606 26.48 252.11 26.408 252.518 26.264C252.926 26.12 253.25 25.928 253.49 25.688C253.738 25.448 253.914 25.168 254.018 24.848C254.13 24.528 254.186 24.188 254.186 23.828C254.186 23.452 254.126 23.116 254.006 22.82C253.886 22.516 253.698 22.26 253.442 22.052C253.186 21.836 252.854 21.672 252.446 21.56C252.046 21.448 251.562 21.392 250.994 21.392H247.742V26.48H251.006ZM247.742 14.144V19.16H250.31C251.414 19.16 252.246 18.96 252.806 18.56C253.374 18.16 253.658 17.524 253.658 16.652C253.658 15.748 253.402 15.104 252.89 14.72C252.378 14.336 251.578 14.144 250.49 14.144H247.742ZM250.49 11.648C251.626 11.648 252.598 11.756 253.406 11.972C254.214 12.188 254.874 12.496 255.386 12.896C255.906 13.296 256.286 13.78 256.526 14.348C256.766 14.916 256.886 15.556 256.886 16.268C256.886 16.676 256.826 17.068 256.706 17.444C256.586 17.812 256.398 18.16 256.142 18.488C255.894 18.808 255.574 19.1 255.182 19.364C254.798 19.628 254.338 19.852 253.802 20.036C256.186 20.572 257.378 21.86 257.378 23.9C257.378 24.636 257.238 25.316 256.958 25.94C256.678 26.564 256.27 27.104 255.734 27.56C255.198 28.008 254.538 28.36 253.754 28.616C252.97 28.872 252.074 29 251.066 29H244.514V11.648H250.49ZM269.551 14.804C269.455 14.972 269.351 15.096 269.239 15.176C269.135 15.248 269.003 15.284 268.843 15.284C268.675 15.284 268.491 15.224 268.291 15.104C268.099 14.976 267.867 14.836 267.595 14.684C267.323 14.532 267.003 14.396 266.635 14.276C266.275 14.148 265.847 14.084 265.351 14.084C264.903 14.084 264.511 14.14 264.175 14.252C263.839 14.356 263.555 14.504 263.323 14.696C263.099 14.888 262.931 15.12 262.819 15.392C262.707 15.656 262.651 15.948 262.651 16.268C262.651 16.676 262.763 17.016 262.987 17.288C263.219 17.56 263.523 17.792 263.899 17.984C264.275 18.176 264.703 18.348 265.183 18.5C265.663 18.652 266.155 18.816 266.659 18.992C267.163 19.16 267.655 19.36 268.135 19.592C268.615 19.816 269.043 20.104 269.419 20.456C269.795 20.8 270.095 21.224 270.319 21.728C270.551 22.232 270.667 22.844 270.667 23.564C270.667 24.348 270.531 25.084 270.259 25.772C269.995 26.452 269.603 27.048 269.083 27.56C268.571 28.064 267.943 28.464 267.199 28.76C266.455 29.048 265.603 29.192 264.643 29.192C264.091 29.192 263.547 29.136 263.011 29.024C262.475 28.92 261.959 28.768 261.463 28.568C260.975 28.368 260.515 28.128 260.083 27.848C259.651 27.568 259.267 27.256 258.931 26.912L259.879 25.364C259.959 25.252 260.063 25.16 260.191 25.088C260.319 25.008 260.455 24.968 260.599 24.968C260.799 24.968 261.015 25.052 261.247 25.22C261.479 25.38 261.755 25.56 262.075 25.76C262.395 25.96 262.767 26.144 263.191 26.312C263.623 26.472 264.139 26.552 264.739 26.552C265.659 26.552 266.371 26.336 266.875 25.904C267.379 25.464 267.631 24.836 267.631 24.02C267.631 23.564 267.515 23.192 267.283 22.904C267.059 22.616 266.759 22.376 266.383 22.184C266.007 21.984 265.579 21.816 265.099 21.68C264.619 21.544 264.131 21.396 263.635 21.236C263.139 21.076 262.651 20.884 262.171 20.66C261.691 20.436 261.263 20.144 260.887 19.784C260.511 19.424 260.207 18.976 259.975 18.44C259.751 17.896 259.639 17.228 259.639 16.436C259.639 15.804 259.763 15.188 260.011 14.588C260.267 13.988 260.635 13.456 261.115 12.992C261.595 12.528 262.187 12.156 262.891 11.876C263.595 11.596 264.403 11.456 265.315 11.456C266.339 11.456 267.283 11.616 268.147 11.936C269.011 12.256 269.747 12.704 270.355 13.28L269.551 14.804ZM285.399 24.908C285.575 24.908 285.731 24.976 285.867 25.112L287.139 26.492C286.435 27.364 285.567 28.032 284.535 28.496C283.511 28.96 282.279 29.192 280.839 29.192C279.551 29.192 278.391 28.972 277.359 28.532C276.335 28.092 275.459 27.48 274.731 26.696C274.003 25.912 273.443 24.976 273.051 23.888C272.667 22.8 272.475 21.612 272.475 20.324C272.475 19.02 272.683 17.828 273.099 16.748C273.515 15.66 274.099 14.724 274.851 13.94C275.611 13.156 276.515 12.548 277.563 12.116C278.611 11.676 279.771 11.456 281.043 11.456C282.307 11.456 283.427 11.664 284.403 12.08C285.387 12.496 286.223 13.04 286.911 13.712L285.831 15.212C285.767 15.308 285.683 15.392 285.579 15.464C285.483 15.536 285.347 15.572 285.171 15.572C285.051 15.572 284.927 15.54 284.799 15.476C284.671 15.404 284.531 15.32 284.379 15.224C284.227 15.12 284.051 15.008 283.851 14.888C283.651 14.768 283.419 14.66 283.155 14.564C282.891 14.46 282.583 14.376 282.231 14.312C281.887 14.24 281.487 14.204 281.031 14.204C280.255 14.204 279.543 14.344 278.895 14.624C278.255 14.896 277.703 15.296 277.239 15.824C276.775 16.344 276.415 16.984 276.159 17.744C275.903 18.496 275.775 19.356 275.775 20.324C275.775 21.3 275.911 22.168 276.183 22.928C276.463 23.688 276.839 24.328 277.311 24.848C277.783 25.368 278.339 25.768 278.979 26.048C279.619 26.32 280.307 26.456 281.043 26.456C281.483 26.456 281.879 26.432 282.231 26.384C282.591 26.336 282.919 26.26 283.215 26.156C283.519 26.052 283.803 25.92 284.067 25.76C284.339 25.592 284.607 25.388 284.871 25.148C284.951 25.076 285.035 25.02 285.123 24.98C285.211 24.932 285.303 24.908 285.399 24.908ZM294.594 19.904C295.202 19.904 295.73 19.828 296.178 19.676C296.634 19.524 297.006 19.316 297.294 19.052C297.59 18.78 297.81 18.46 297.954 18.092C298.098 17.724 298.17 17.32 298.17 16.88C298.17 16 297.878 15.324 297.294 14.852C296.718 14.38 295.834 14.144 294.642 14.144H292.578V19.904H294.594ZM302.898 29H299.982C299.43 29 299.03 28.784 298.782 28.352L295.134 22.796C294.998 22.588 294.846 22.44 294.678 22.352C294.518 22.264 294.278 22.22 293.958 22.22H292.578V29H289.35V11.648H294.642C295.818 11.648 296.826 11.772 297.666 12.02C298.514 12.26 299.206 12.6 299.742 13.04C300.286 13.48 300.686 14.008 300.942 14.624C301.198 15.232 301.326 15.904 301.326 16.64C301.326 17.224 301.238 17.776 301.062 18.296C300.894 18.816 300.646 19.288 300.318 19.712C299.998 20.136 299.598 20.508 299.118 20.828C298.646 21.148 298.106 21.4 297.498 21.584C297.706 21.704 297.898 21.848 298.074 22.016C298.25 22.176 298.41 22.368 298.554 22.592L302.898 29ZM308.012 29H304.772V11.648H308.012V29ZM318.389 26.48C318.989 26.48 319.493 26.408 319.901 26.264C320.309 26.12 320.633 25.928 320.873 25.688C321.121 25.448 321.297 25.168 321.401 24.848C321.513 24.528 321.569 24.188 321.569 23.828C321.569 23.452 321.509 23.116 321.389 22.82C321.269 22.516 321.081 22.26 320.825 22.052C320.569 21.836 320.237 21.672 319.829 21.56C319.429 21.448 318.945 21.392 318.377 21.392H315.125V26.48H318.389ZM315.125 14.144V19.16H317.693C318.797 19.16 319.629 18.96 320.189 18.56C320.757 18.16 321.041 17.524 321.041 16.652C321.041 15.748 320.785 15.104 320.273 14.72C319.761 14.336 318.961 14.144 317.873 14.144H315.125ZM317.873 11.648C319.009 11.648 319.981 11.756 320.789 11.972C321.597 12.188 322.257 12.496 322.769 12.896C323.289 13.296 323.669 13.78 323.909 14.348C324.149 14.916 324.269 15.556 324.269 16.268C324.269 16.676 324.209 17.068 324.089 17.444C323.969 17.812 323.781 18.16 323.525 18.488C323.277 18.808 322.957 19.1 322.565 19.364C322.181 19.628 321.721 19.852 321.185 20.036C323.569 20.572 324.761 21.86 324.761 23.9C324.761 24.636 324.621 25.316 324.341 25.94C324.061 26.564 323.653 27.104 323.117 27.56C322.581 28.008 321.921 28.36 321.137 28.616C320.353 28.872 319.457 29 318.449 29H311.897V11.648H317.873ZM330.934 14.216V19.028H337.006V21.512H330.934V26.42H338.638V29H327.694V11.648H338.638V14.216H330.934ZM107.764 46.525V51.034H113.065V52.456H107.764V58H106.018V45.103H113.965V46.525H107.764ZM127.989 51.556C127.989 52.522 127.836 53.41 127.53 54.22C127.224 55.024 126.792 55.717 126.234 56.299C125.676 56.881 125.004 57.334 124.218 57.658C123.438 57.976 122.574 58.135 121.626 58.135C120.678 58.135 119.814 57.976 119.034 57.658C118.254 57.334 117.585 56.881 117.027 56.299C116.469 55.717 116.037 55.024 115.731 54.22C115.425 53.41 115.272 52.522 115.272 51.556C115.272 50.59 115.425 49.705 115.731 48.901C116.037 48.091 116.469 47.395 117.027 46.813C117.585 46.225 118.254 45.769 119.034 45.445C119.814 45.121 120.678 44.959 121.626 44.959C122.574 44.959 123.438 45.121 124.218 45.445C125.004 45.769 125.676 46.225 126.234 46.813C126.792 47.395 127.224 48.091 127.53 48.901C127.836 49.705 127.989 50.59 127.989 51.556ZM126.198 51.556C126.198 50.764 126.09 50.053 125.874 49.423C125.658 48.793 125.352 48.262 124.956 47.83C124.56 47.392 124.08 47.056 123.516 46.822C122.952 46.588 122.322 46.471 121.626 46.471C120.936 46.471 120.309 46.588 119.745 46.822C119.181 47.056 118.698 47.392 118.296 47.83C117.9 48.262 117.594 48.793 117.378 49.423C117.162 50.053 117.054 50.764 117.054 51.556C117.054 52.348 117.162 53.059 117.378 53.689C117.594 54.313 117.9 54.844 118.296 55.282C118.698 55.714 119.181 56.047 119.745 56.281C120.309 56.509 120.936 56.623 121.626 56.623C122.322 56.623 122.952 56.509 123.516 56.281C124.08 56.047 124.56 55.714 124.956 55.282C125.352 54.844 125.658 54.313 125.874 53.689C126.09 53.059 126.198 52.348 126.198 51.556ZM134.06 51.349C134.564 51.349 135.008 51.289 135.392 51.169C135.782 51.043 136.106 50.869 136.364 50.647C136.628 50.419 136.826 50.149 136.958 49.837C137.09 49.525 137.156 49.18 137.156 48.802C137.156 48.034 136.904 47.455 136.4 47.065C135.896 46.675 135.14 46.48 134.132 46.48H132.224V51.349H134.06ZM140.018 58H138.47C138.152 58 137.918 57.877 137.768 57.631L134.42 53.023C134.318 52.879 134.207 52.777 134.087 52.717C133.973 52.651 133.793 52.618 133.547 52.618H132.224V58H130.487V45.103H134.132C134.948 45.103 135.653 45.187 136.247 45.355C136.841 45.517 137.33 45.754 137.714 46.066C138.104 46.378 138.392 46.756 138.578 47.2C138.764 47.638 138.857 48.13 138.857 48.676C138.857 49.132 138.785 49.558 138.641 49.954C138.497 50.35 138.287 50.707 138.011 51.025C137.741 51.337 137.408 51.604 137.012 51.826C136.622 52.048 136.178 52.216 135.68 52.33C135.902 52.456 136.094 52.639 136.256 52.879L140.018 58ZM158.293 51.556C158.293 52.522 158.14 53.41 157.834 54.22C157.528 55.024 157.096 55.717 156.538 56.299C155.98 56.881 155.308 57.334 154.522 57.658C153.742 57.976 152.878 58.135 151.93 58.135C150.982 58.135 150.118 57.976 149.338 57.658C148.558 57.334 147.889 56.881 147.331 56.299C146.773 55.717 146.341 55.024 146.035 54.22C145.729 53.41 145.576 52.522 145.576 51.556C145.576 50.59 145.729 49.705 146.035 48.901C146.341 48.091 146.773 47.395 147.331 46.813C147.889 46.225 148.558 45.769 149.338 45.445C150.118 45.121 150.982 44.959 151.93 44.959C152.878 44.959 153.742 45.121 154.522 45.445C155.308 45.769 155.98 46.225 156.538 46.813C157.096 47.395 157.528 48.091 157.834 48.901C158.14 49.705 158.293 50.59 158.293 51.556ZM156.502 51.556C156.502 50.764 156.394 50.053 156.178 49.423C155.962 48.793 155.656 48.262 155.26 47.83C154.864 47.392 154.384 47.056 153.82 46.822C153.256 46.588 152.626 46.471 151.93 46.471C151.24 46.471 150.613 46.588 150.049 46.822C149.485 47.056 149.002 47.392 148.6 47.83C148.204 48.262 147.898 48.793 147.682 49.423C147.466 50.053 147.358 50.764 147.358 51.556C147.358 52.348 147.466 53.059 147.682 53.689C147.898 54.313 148.204 54.844 148.6 55.282C149.002 55.714 149.485 56.047 150.049 56.281C150.613 56.509 151.24 56.623 151.93 56.623C152.626 56.623 153.256 56.509 153.82 56.281C154.384 56.047 154.864 55.714 155.26 55.282C155.656 54.844 155.962 54.313 156.178 53.689C156.394 53.059 156.502 52.348 156.502 51.556ZM165.769 56.614C166.303 56.614 166.78 56.524 167.2 56.344C167.62 56.164 167.974 55.912 168.262 55.588C168.556 55.264 168.778 54.877 168.928 54.427C169.084 53.977 169.162 53.482 169.162 52.942V45.103H170.899V52.942C170.899 53.686 170.779 54.376 170.539 55.012C170.305 55.648 169.966 56.2 169.522 56.668C169.084 57.13 168.547 57.493 167.911 57.757C167.275 58.021 166.561 58.153 165.769 58.153C164.977 58.153 164.263 58.021 163.627 57.757C162.991 57.493 162.451 57.13 162.007 56.668C161.563 56.2 161.221 55.648 160.981 55.012C160.747 54.376 160.63 53.686 160.63 52.942V45.103H162.367V52.933C162.367 53.473 162.442 53.968 162.592 54.418C162.748 54.868 162.97 55.255 163.258 55.579C163.552 55.903 163.909 56.158 164.329 56.344C164.755 56.524 165.235 56.614 165.769 56.614ZM177.601 51.349C178.105 51.349 178.549 51.289 178.933 51.169C179.323 51.043 179.647 50.869 179.905 50.647C180.169 50.419 180.367 50.149 180.499 49.837C180.631 49.525 180.697 49.18 180.697 48.802C180.697 48.034 180.445 47.455 179.941 47.065C179.437 46.675 178.681 46.48 177.673 46.48H175.765V51.349H177.601ZM183.559 58H182.011C181.693 58 181.459 57.877 181.309 57.631L177.961 53.023C177.859 52.879 177.748 52.777 177.628 52.717C177.514 52.651 177.334 52.618 177.088 52.618H175.765V58H174.028V45.103H177.673C178.489 45.103 179.194 45.187 179.788 45.355C180.382 45.517 180.871 45.754 181.255 46.066C181.645 46.378 181.933 46.756 182.119 47.2C182.305 47.638 182.398 48.13 182.398 48.676C182.398 49.132 182.326 49.558 182.182 49.954C182.038 50.35 181.828 50.707 181.552 51.025C181.282 51.337 180.949 51.604 180.553 51.826C180.163 52.048 179.719 52.216 179.221 52.33C179.443 52.456 179.635 52.639 179.797 52.879L183.559 58ZM200.367 45.103V58H199.494C199.356 58 199.239 57.976 199.143 57.928C199.053 57.88 198.963 57.799 198.873 57.685L191.412 47.965C191.424 48.115 191.433 48.262 191.439 48.406C191.445 48.55 191.448 48.685 191.448 48.811V58H189.918V45.103H190.818C190.896 45.103 190.962 45.109 191.016 45.121C191.07 45.127 191.118 45.142 191.16 45.166C191.202 45.184 191.244 45.214 191.286 45.256C191.328 45.292 191.373 45.34 191.421 45.4L198.882 55.111C198.87 54.955 198.858 54.805 198.846 54.661C198.84 54.511 198.837 54.37 198.837 54.238V45.103H200.367ZM211.621 56.578L211.612 58H203.665V45.103H211.612V46.525H205.411V50.809H210.433V52.177H205.411V56.578H211.621ZM230.766 45.103L226.743 58H225.177L221.91 48.163C221.88 48.067 221.85 47.965 221.82 47.857C221.796 47.749 221.769 47.635 221.739 47.515C221.709 47.635 221.679 47.749 221.649 47.857C221.619 47.965 221.589 48.067 221.559 48.163L218.274 58H216.708L212.685 45.103H214.134C214.29 45.103 214.419 45.142 214.521 45.22C214.629 45.298 214.698 45.397 214.728 45.517L217.392 54.481C217.434 54.643 217.473 54.817 217.509 55.003C217.551 55.189 217.59 55.387 217.626 55.597C217.668 55.387 217.71 55.189 217.752 55.003C217.8 54.811 217.851 54.637 217.905 54.481L220.938 45.517C220.974 45.415 221.043 45.322 221.145 45.238C221.253 45.148 221.382 45.103 221.532 45.103H222.036C222.192 45.103 222.318 45.142 222.414 45.22C222.51 45.298 222.582 45.397 222.63 45.517L225.654 54.481C225.708 54.637 225.756 54.805 225.798 54.985C225.846 55.165 225.891 55.354 225.933 55.552C225.963 55.354 225.996 55.165 226.032 54.985C226.068 54.805 226.107 54.637 226.149 54.481L228.822 45.517C228.852 45.409 228.918 45.313 229.02 45.229C229.128 45.145 229.257 45.103 229.407 45.103H230.766ZM240.003 56.533V58H232.686V45.103H234.423V56.533H240.003ZM249.888 56.578L249.879 58H241.932V45.103H249.879V46.525H243.678V50.809H248.7V52.177H243.678V56.578H249.888ZM261.042 46.57H256.866V58H255.129V46.57H250.944V45.103H261.042V46.57ZM271.677 46.57H267.501V58H265.764V46.57H261.579V45.103H271.677V46.57ZM281.546 56.578L281.537 58H273.59V45.103H281.537V46.525H275.336V50.809H280.358V52.177H275.336V56.578H281.546ZM287.552 51.349C288.056 51.349 288.5 51.289 288.884 51.169C289.274 51.043 289.598 50.869 289.856 50.647C290.12 50.419 290.318 50.149 290.45 49.837C290.582 49.525 290.648 49.18 290.648 48.802C290.648 48.034 290.396 47.455 289.892 47.065C289.388 46.675 288.632 46.48 287.624 46.48H285.716V51.349H287.552ZM293.51 58H291.962C291.644 58 291.41 57.877 291.26 57.631L287.912 53.023C287.81 52.879 287.699 52.777 287.579 52.717C287.465 52.651 287.285 52.618 287.039 52.618H285.716V58H283.979V45.103H287.624C288.44 45.103 289.145 45.187 289.739 45.355C290.333 45.517 290.822 45.754 291.206 46.066C291.596 46.378 291.884 46.756 292.07 47.2C292.256 47.638 292.349 48.13 292.349 48.676C292.349 49.132 292.277 49.558 292.133 49.954C291.989 50.35 291.779 50.707 291.503 51.025C291.233 51.337 290.9 51.604 290.504 51.826C290.114 52.048 289.67 52.216 289.172 52.33C289.394 52.456 289.586 52.639 289.748 52.879L293.51 58ZM306.121 53.212L304.096 47.965C304.036 47.809 303.973 47.629 303.907 47.425C303.841 47.215 303.778 46.993 303.718 46.759C303.592 47.245 303.463 47.65 303.331 47.974L301.306 53.212H306.121ZM309.757 58H308.407C308.251 58 308.125 57.961 308.029 57.883C307.933 57.805 307.861 57.706 307.813 57.586L306.607 54.472H300.82L299.614 57.586C299.578 57.694 299.509 57.79 299.407 57.874C299.305 57.958 299.179 58 299.029 58H297.679L302.836 45.103H304.6L309.757 58ZM321.903 45.103V58H321.03C320.892 58 320.775 57.976 320.679 57.928C320.589 57.88 320.499 57.799 320.409 57.685L312.948 47.965C312.96 48.115 312.969 48.262 312.975 48.406C312.981 48.55 312.984 48.685 312.984 48.811V58H311.454V45.103H312.354C312.432 45.103 312.498 45.109 312.552 45.121C312.606 45.127 312.654 45.142 312.696 45.166C312.738 45.184 312.78 45.214 312.822 45.256C312.864 45.292 312.909 45.34 312.957 45.4L320.418 55.111C320.406 54.955 320.394 54.805 320.382 54.661C320.376 54.511 320.373 54.37 320.373 54.238V45.103H321.903ZM336.378 51.556C336.378 52.522 336.225 53.401 335.919 54.193C335.613 54.985 335.181 55.663 334.623 56.227C334.065 56.791 333.393 57.229 332.607 57.541C331.827 57.847 330.963 58 330.015 58H325.2V45.103H330.015C330.963 45.103 331.827 45.259 332.607 45.571C333.393 45.877 334.065 46.315 334.623 46.885C335.181 47.449 335.613 48.127 335.919 48.919C336.225 49.711 336.378 50.59 336.378 51.556ZM334.587 51.556C334.587 50.764 334.479 50.056 334.263 49.432C334.047 48.808 333.741 48.28 333.345 47.848C332.949 47.416 332.469 47.086 331.905 46.858C331.341 46.63 330.711 46.516 330.015 46.516H326.946V56.587H330.015C330.711 56.587 331.341 56.473 331.905 56.245C332.469 56.017 332.949 55.69 333.345 55.264C333.741 54.832 334.047 54.304 334.263 53.68C334.479 53.056 334.587 52.348 334.587 51.556ZM347.306 51.79C347.804 51.79 348.242 51.724 348.62 51.592C349.004 51.46 349.325 51.277 349.583 51.043C349.847 50.803 350.045 50.518 350.177 50.188C350.309 49.858 350.375 49.495 350.375 49.099C350.375 48.277 350.12 47.635 349.61 47.173C349.106 46.711 348.338 46.48 347.306 46.48H345.236V51.79H347.306ZM347.306 45.103C348.122 45.103 348.83 45.199 349.43 45.391C350.036 45.577 350.537 45.844 350.933 46.192C351.329 46.54 351.623 46.96 351.815 47.452C352.013 47.944 352.112 48.493 352.112 49.099C352.112 49.699 352.007 50.248 351.797 50.746C351.587 51.244 351.278 51.673 350.87 52.033C350.468 52.393 349.967 52.675 349.367 52.879C348.773 53.077 348.086 53.176 347.306 53.176H345.236V58H343.499V45.103H347.306ZM357.882 51.349C358.386 51.349 358.83 51.289 359.214 51.169C359.604 51.043 359.928 50.869 360.186 50.647C360.45 50.419 360.648 50.149 360.78 49.837C360.912 49.525 360.978 49.18 360.978 48.802C360.978 48.034 360.726 47.455 360.222 47.065C359.718 46.675 358.962 46.48 357.954 46.48H356.046V51.349H357.882ZM363.84 58H362.292C361.974 58 361.74 57.877 361.59 57.631L358.242 53.023C358.14 52.879 358.029 52.777 357.909 52.717C357.795 52.651 357.615 52.618 357.369 52.618H356.046V58H354.309V45.103H357.954C358.77 45.103 359.475 45.187 360.069 45.355C360.663 45.517 361.152 45.754 361.536 46.066C361.926 46.378 362.214 46.756 362.4 47.2C362.586 47.638 362.679 48.13 362.679 48.676C362.679 49.132 362.607 49.558 362.463 49.954C362.319 50.35 362.109 50.707 361.833 51.025C361.563 51.337 361.23 51.604 360.834 51.826C360.444 52.048 360 52.216 359.502 52.33C359.724 52.456 359.916 52.639 360.078 52.879L363.84 58ZM377.387 51.556C377.387 52.522 377.234 53.41 376.928 54.22C376.622 55.024 376.19 55.717 375.632 56.299C375.074 56.881 374.402 57.334 373.616 57.658C372.836 57.976 371.972 58.135 371.024 58.135C370.076 58.135 369.212 57.976 368.432 57.658C367.652 57.334 366.983 56.881 366.425 56.299C365.867 55.717 365.435 55.024 365.129 54.22C364.823 53.41 364.67 52.522 364.67 51.556C364.67 50.59 364.823 49.705 365.129 48.901C365.435 48.091 365.867 47.395 366.425 46.813C366.983 46.225 367.652 45.769 368.432 45.445C369.212 45.121 370.076 44.959 371.024 44.959C371.972 44.959 372.836 45.121 373.616 45.445C374.402 45.769 375.074 46.225 375.632 46.813C376.19 47.395 376.622 48.091 376.928 48.901C377.234 49.705 377.387 50.59 377.387 51.556ZM375.596 51.556C375.596 50.764 375.488 50.053 375.272 49.423C375.056 48.793 374.75 48.262 374.354 47.83C373.958 47.392 373.478 47.056 372.914 46.822C372.35 46.588 371.72 46.471 371.024 46.471C370.334 46.471 369.707 46.588 369.143 46.822C368.579 47.056 368.096 47.392 367.694 47.83C367.298 48.262 366.992 48.793 366.776 49.423C366.56 50.053 366.452 50.764 366.452 51.556C366.452 52.348 366.56 53.059 366.776 53.689C366.992 54.313 367.298 54.844 367.694 55.282C368.096 55.714 368.579 56.047 369.143 56.281C369.707 56.509 370.334 56.623 371.024 56.623C371.72 56.623 372.35 56.509 372.914 56.281C373.478 56.047 373.958 55.714 374.354 55.282C374.75 54.844 375.056 54.313 375.272 53.689C375.488 53.059 375.596 52.348 375.596 51.556ZM393.304 45.103V58H391.774V48.523C391.774 48.397 391.777 48.262 391.783 48.118C391.795 47.974 391.807 47.827 391.819 47.677L387.391 55.741C387.253 56.011 387.043 56.146 386.761 56.146H386.509C386.227 56.146 386.017 56.011 385.879 55.741L381.361 47.641C381.397 47.959 381.415 48.253 381.415 48.523V58H379.885V45.103H381.172C381.328 45.103 381.448 45.118 381.532 45.148C381.616 45.178 381.697 45.262 381.775 45.4L386.23 53.338C386.302 53.482 386.371 53.632 386.437 53.788C386.509 53.944 386.575 54.103 386.635 54.265C386.695 54.103 386.758 53.944 386.824 53.788C386.89 53.626 386.962 53.473 387.04 53.329L391.414 45.4C391.486 45.262 391.564 45.178 391.648 45.148C391.738 45.118 391.861 45.103 392.017 45.103H393.304ZM408.518 51.556C408.518 52.522 408.365 53.41 408.059 54.22C407.753 55.024 407.321 55.717 406.763 56.299C406.205 56.881 405.533 57.334 404.747 57.658C403.967 57.976 403.103 58.135 402.155 58.135C401.207 58.135 400.343 57.976 399.563 57.658C398.783 57.334 398.114 56.881 397.556 56.299C396.998 55.717 396.566 55.024 396.26 54.22C395.954 53.41 395.801 52.522 395.801 51.556C395.801 50.59 395.954 49.705 396.26 48.901C396.566 48.091 396.998 47.395 397.556 46.813C398.114 46.225 398.783 45.769 399.563 45.445C400.343 45.121 401.207 44.959 402.155 44.959C403.103 44.959 403.967 45.121 404.747 45.445C405.533 45.769 406.205 46.225 406.763 46.813C407.321 47.395 407.753 48.091 408.059 48.901C408.365 49.705 408.518 50.59 408.518 51.556ZM406.727 51.556C406.727 50.764 406.619 50.053 406.403 49.423C406.187 48.793 405.881 48.262 405.485 47.83C405.089 47.392 404.609 47.056 404.045 46.822C403.481 46.588 402.851 46.471 402.155 46.471C401.465 46.471 400.838 46.588 400.274 46.822C399.71 47.056 399.227 47.392 398.825 47.83C398.429 48.262 398.123 48.793 397.907 49.423C397.691 50.053 397.583 50.764 397.583 51.556C397.583 52.348 397.691 53.059 397.907 53.689C398.123 54.313 398.429 54.844 398.825 55.282C399.227 55.714 399.71 56.047 400.274 56.281C400.838 56.509 401.465 56.623 402.155 56.623C402.851 56.623 403.481 56.509 404.045 56.281C404.609 56.047 405.089 55.714 405.485 55.282C405.881 54.844 406.187 54.313 406.403 53.689C406.619 53.059 406.727 52.348 406.727 51.556ZM419.157 46.57H414.981V58H413.244V46.57H409.059V45.103H419.157V46.57ZM422.817 58H421.071V45.103H422.817V58ZM438.032 51.556C438.032 52.522 437.879 53.41 437.573 54.22C437.267 55.024 436.835 55.717 436.277 56.299C435.719 56.881 435.047 57.334 434.261 57.658C433.481 57.976 432.617 58.135 431.669 58.135C430.721 58.135 429.857 57.976 429.077 57.658C428.297 57.334 427.628 56.881 427.07 56.299C426.512 55.717 426.08 55.024 425.774 54.22C425.468 53.41 425.315 52.522 425.315 51.556C425.315 50.59 425.468 49.705 425.774 48.901C426.08 48.091 426.512 47.395 427.07 46.813C427.628 46.225 428.297 45.769 429.077 45.445C429.857 45.121 430.721 44.959 431.669 44.959C432.617 44.959 433.481 45.121 434.261 45.445C435.047 45.769 435.719 46.225 436.277 46.813C436.835 47.395 437.267 48.091 437.573 48.901C437.879 49.705 438.032 50.59 438.032 51.556ZM436.241 51.556C436.241 50.764 436.133 50.053 435.917 49.423C435.701 48.793 435.395 48.262 434.999 47.83C434.603 47.392 434.123 47.056 433.559 46.822C432.995 46.588 432.365 46.471 431.669 46.471C430.979 46.471 430.352 46.588 429.788 46.822C429.224 47.056 428.741 47.392 428.339 47.83C427.943 48.262 427.637 48.793 427.421 49.423C427.205 50.053 427.097 50.764 427.097 51.556C427.097 52.348 427.205 53.059 427.421 53.689C427.637 54.313 427.943 54.844 428.339 55.282C428.741 55.714 429.224 56.047 429.788 56.281C430.352 56.509 430.979 56.623 431.669 56.623C432.365 56.623 432.995 56.509 433.559 56.281C434.123 56.047 434.603 55.714 434.999 55.282C435.395 54.844 435.701 54.313 435.917 53.689C436.133 53.059 436.241 52.348 436.241 51.556ZM450.979 45.103V58H450.106C449.968 58 449.851 57.976 449.755 57.928C449.665 57.88 449.575 57.799 449.485 57.685L442.024 47.965C442.036 48.115 442.045 48.262 442.051 48.406C442.057 48.55 442.06 48.685 442.06 48.811V58H440.53V45.103H441.43C441.508 45.103 441.574 45.109 441.628 45.121C441.682 45.127 441.73 45.142 441.772 45.166C441.814 45.184 441.856 45.214 441.898 45.256C441.94 45.292 441.985 45.34 442.033 45.4L449.494 55.111C449.482 54.955 449.47 54.805 449.458 54.661C449.452 54.511 449.449 54.37 449.449 54.238V45.103H450.979Z" fill="#222224"/>
</svg>
