<svg width="88" height="19" viewBox="0 0 88 19" fill="none" xmlns="http://www.w3.org/2000/svg">
<path d="M18.048 8.65459V9.95059C18.048 12.3506 17.28 14.2946 15.744 15.7826C14.208 17.2706 12.224 18.0146 9.792 18.0146C7.2 18.0146 5.048 17.1746 3.336 15.4946C1.64 13.7986 0.792 11.7346 0.792 9.30259C0.792 6.85459 1.632 4.78259 3.312 3.08659C5.008 1.39059 7.104 0.542588 9.6 0.542588C11.168 0.542588 12.6 0.902588 13.896 1.62259C15.192 2.32659 16.2 3.27059 16.92 4.45459L14.088 6.08659C13.688 5.39859 13.08 4.83859 12.264 4.40659C11.464 3.97459 10.568 3.75859 9.576 3.75859C7.976 3.75859 6.656 4.28659 5.616 5.34259C4.592 6.38259 4.08 7.70259 4.08 9.30259C4.08 10.8866 4.6 12.1986 5.64 13.2386C6.696 14.2626 8.088 14.7746 9.816 14.7746C11.096 14.7746 12.152 14.4946 12.984 13.9346C13.832 13.3586 14.408 12.5746 14.712 11.5826H9.624V8.65459H18.048ZM23.3558 7.74259C23.6438 6.97459 24.1158 6.39859 24.7718 6.01459C25.4438 5.63059 26.1878 5.43859 27.0038 5.43859V8.89459C26.0598 8.78259 25.2118 8.97459 24.4598 9.47059C23.7238 9.96659 23.3558 10.7906 23.3558 11.9426V17.6786H20.2598V5.67859H23.3558V7.74259ZM38.5931 16.1906C37.3611 17.4066 35.8571 18.0146 34.0811 18.0146C32.3051 18.0146 30.8011 17.4066 29.5691 16.1906C28.3531 14.9586 27.7451 13.4546 27.7451 11.6786C27.7451 9.90259 28.3531 8.40659 29.5691 7.19059C30.8011 5.95859 32.3051 5.34259 34.0811 5.34259C35.8571 5.34259 37.3611 5.95859 38.5931 7.19059C39.8251 8.40659 40.4411 9.90259 40.4411 11.6786C40.4411 13.4546 39.8251 14.9586 38.5931 16.1906ZM31.7531 14.0546C32.3771 14.6786 33.1531 14.9906 34.0811 14.9906C35.0091 14.9906 35.7851 14.6786 36.4091 14.0546C37.0331 13.4306 37.3451 12.6386 37.3451 11.6786C37.3451 10.7186 37.0331 9.92659 36.4091 9.30259C35.7851 8.67859 35.0091 8.36659 34.0811 8.36659C33.1531 8.36659 32.3771 8.67859 31.7531 9.30259C31.1451 9.92659 30.8411 10.7186 30.8411 11.6786C30.8411 12.6386 31.1451 13.4306 31.7531 14.0546ZM55.6624 5.67859H58.9504L55.1344 17.6786H52.1824L49.9744 10.4066L47.7664 17.6786H44.8144L40.9984 5.67859H44.2864L46.3264 13.0466L48.5104 5.67859H51.4384L53.6224 13.0706L55.6624 5.67859Z" fill="black"/>
<path d="M70.9151 8.96659C72.3871 9.81459 73.1231 11.0946 73.1231 12.8066C73.1231 14.2306 72.6191 15.3986 71.6111 16.3106C70.6031 17.2226 69.3631 17.6786 67.8911 17.6786H60.7631V0.878588H67.3871C68.8271 0.878588 70.0351 1.32659 71.0111 2.22259C72.0031 3.10259 72.4991 4.23059 72.4991 5.60659C72.4991 6.99859 71.9711 8.11859 70.9151 8.96659ZM67.3871 3.97459H64.0751V7.67059H67.3871C67.8991 7.67059 68.3231 7.49459 68.6591 7.14259C69.0111 6.79059 69.1871 6.35059 69.1871 5.82259C69.1871 5.29459 69.0191 4.85459 68.6831 4.50259C68.3471 4.15059 67.9151 3.97459 67.3871 3.97459ZM67.8911 14.5826C68.4511 14.5826 68.9151 14.3986 69.2831 14.0306C69.6511 13.6466 69.8351 13.1666 69.8351 12.5906C69.8351 12.0306 69.6511 11.5666 69.2831 11.1986C68.9151 10.8146 68.4511 10.6226 67.8911 10.6226H64.0751V14.5826H67.8911ZM77.9539 12.9506C78.3699 14.4546 79.4979 15.2066 81.3379 15.2066C82.5219 15.2066 83.4179 14.8066 84.0259 14.0066L86.5219 15.4466C85.3379 17.1586 83.5939 18.0146 81.2899 18.0146C79.3059 18.0146 77.7139 17.4146 76.5139 16.2146C75.3139 15.0146 74.7139 13.5026 74.7139 11.6786C74.7139 9.87059 75.3059 8.36659 76.4899 7.16659C77.6739 5.95059 79.1939 5.34259 81.0499 5.34259C82.8099 5.34259 84.2579 5.95059 85.3939 7.16659C86.5459 8.38259 87.1219 9.88659 87.1219 11.6786C87.1219 12.0786 87.0819 12.5026 87.0019 12.9506H77.9539ZM77.9059 10.5506H84.0259C83.8499 9.73459 83.4819 9.12659 82.9219 8.72659C82.3779 8.32659 81.7539 8.12659 81.0499 8.12659C80.2179 8.12659 79.5299 8.34259 78.9859 8.77459C78.4419 9.19059 78.0819 9.78259 77.9059 10.5506Z" fill="#F25822"/>
</svg>
