<svg width="26" height="27" viewBox="0 0 26 27" fill="none" xmlns="http://www.w3.org/2000/svg">
<path d="M18.0586 17.6249C19.6703 15.8648 20.6272 13.6038 20.7688 11.2215C20.9103 8.8392 20.2279 6.48075 18.836 4.5422C17.4441 2.60365 15.4275 1.20306 13.125 0.575643C10.8224 -0.0517774 8.37412 0.132183 6.19119 1.09663C4.00826 2.06108 2.22365 3.74727 1.13706 5.87205C0.0504707 7.99682 -0.271923 10.4308 0.224019 12.7652C0.719961 15.0996 2.00403 17.1922 3.8606 18.6917C5.71717 20.1912 8.03316 21.0063 10.4196 20.9999C12.672 21.003 14.8635 20.269 16.6597 18.9099L24.4076 26.7169C24.4931 26.806 24.5956 26.8771 24.7089 26.926C24.8222 26.975 24.9442 27.0008 25.0676 27.0019C25.1913 27.0023 25.3138 26.9772 25.4273 26.9282C25.5409 26.8792 25.6431 26.8072 25.7276 26.7169C25.9016 26.536 25.9987 26.2949 25.9987 26.0439C25.9987 25.793 25.9016 25.5518 25.7276 25.3709L18.0586 17.6249ZM1.88565 10.4999C1.89848 8.81465 2.40996 7.17089 3.35561 5.77587C4.30126 4.38086 5.63875 3.29703 7.19946 2.66102C8.76017 2.02501 10.4742 1.86529 12.1256 2.202C13.7769 2.53871 15.2917 3.35678 16.4788 4.55307C17.6659 5.74935 18.4722 7.27031 18.7962 8.92421C19.1202 10.5781 18.9473 12.2909 18.2993 13.8467C17.6512 15.4024 16.5571 16.7315 15.1549 17.6664C13.7526 18.6013 12.105 19.1001 10.4196 19.0999C8.14819 19.0891 5.97384 18.1774 4.37386 16.5651C2.77388 14.9527 1.879 12.7714 1.88565 10.4999Z" fill="#E8E8E8"/>
</svg>
