<svg width="46" height="27" viewBox="0 0 46 27" fill="none" xmlns="http://www.w3.org/2000/svg">
<path d="M45 1H1V25.9487H45V1Z" fill="white"/>
<path d="M44.5925 1.41589H1.40735V25.533H44.5925V1.41589Z" stroke="#EAEAEA" stroke-linejoin="round"/>
<path d="M25.883 18.479C26.057 18.479 26.195 18.53 26.297 18.632C26.399 18.734 26.45 18.866 26.45 19.028V20H17.846V19.451C17.846 19.337 17.87 19.22 17.918 19.1C17.966 18.98 18.041 18.869 18.143 18.767L22.274 14.618C22.616 14.27 22.928 13.937 23.21 13.619C23.492 13.295 23.732 12.971 23.93 12.647C24.128 12.323 24.281 11.996 24.389 11.666C24.497 11.33 24.551 10.973 24.551 10.595C24.551 10.217 24.491 9.887 24.371 9.605C24.251 9.317 24.086 9.08 23.876 8.894C23.672 8.708 23.429 8.57 23.147 8.48C22.865 8.384 22.562 8.336 22.238 8.336C21.908 8.336 21.605 8.384 21.329 8.48C21.053 8.576 20.807 8.711 20.591 8.885C20.381 9.053 20.204 9.254 20.06 9.488C19.916 9.722 19.814 9.98 19.754 10.262C19.682 10.472 19.583 10.613 19.457 10.685C19.337 10.751 19.166 10.769 18.944 10.739L18.107 10.595C18.191 10.007 18.353 9.488 18.593 9.038C18.839 8.582 19.145 8.201 19.511 7.895C19.883 7.589 20.306 7.358 20.78 7.202C21.254 7.04 21.767 6.959 22.319 6.959C22.865 6.959 23.375 7.04 23.849 7.202C24.323 7.364 24.734 7.601 25.082 7.913C25.43 8.219 25.703 8.594 25.901 9.038C26.099 9.482 26.198 9.986 26.198 10.55C26.198 11.03 26.126 11.477 25.982 11.891C25.838 12.299 25.643 12.689 25.397 13.061C25.151 13.433 24.866 13.796 24.542 14.15C24.224 14.504 23.885 14.861 23.525 15.221L20.123 18.695C20.363 18.629 20.606 18.578 20.852 18.542C21.098 18.5 21.335 18.479 21.563 18.479H25.883Z" fill="#656565"/>
</svg>
