<svg width="63" height="9" viewBox="0 0 63 9" fill="none" xmlns="http://www.w3.org/2000/svg">
<path d="M4.939 8L3.388 5.327H2.233V8H0.715V0.299999H3.795C4.50633 0.299999 5.11133 0.549333 5.61 1.048C6.10867 1.54667 6.358 2.148 6.358 2.852C6.358 3.32867 6.22233 3.77233 5.951 4.183C5.67967 4.58633 5.32033 4.89067 4.873 5.096L6.578 8H4.939ZM2.233 1.719V3.996H3.795C4.081 3.996 4.32667 3.886 4.532 3.666C4.73733 3.43867 4.84 3.16733 4.84 2.852C4.84 2.53667 4.73733 2.269 4.532 2.049C4.32667 1.829 4.081 1.719 3.795 1.719H2.233ZM8.32554 5.833C8.51621 6.52233 9.03321 6.867 9.87654 6.867C10.4192 6.867 10.8299 6.68367 11.1085 6.317L12.2525 6.977C11.7099 7.76167 10.9105 8.154 9.85454 8.154C8.94521 8.154 8.21554 7.879 7.66554 7.329C7.11554 6.779 6.84054 6.086 6.84054 5.25C6.84054 4.42133 7.11187 3.732 7.65454 3.182C8.19721 2.62467 8.89387 2.346 9.74454 2.346C10.5512 2.346 11.2149 2.62467 11.7355 3.182C12.2635 3.73933 12.5275 4.42867 12.5275 5.25C12.5275 5.43333 12.5092 5.62767 12.4725 5.833H8.32554ZM8.30354 4.733H11.1085C11.0279 4.359 10.8592 4.08033 10.6025 3.897C10.3532 3.71367 10.0672 3.622 9.74454 3.622C9.36321 3.622 9.04787 3.721 8.79854 3.919C8.54921 4.10967 8.38421 4.381 8.30354 4.733ZM17.6552 2.5H19.0742V8H17.6552V7.351C17.2298 7.88633 16.6322 8.154 15.8622 8.154C15.1288 8.154 14.4982 7.87533 13.9702 7.318C13.4495 6.75333 13.1892 6.064 13.1892 5.25C13.1892 4.436 13.4495 3.75033 13.9702 3.193C14.4982 2.62833 15.1288 2.346 15.8622 2.346C16.6322 2.346 17.2298 2.61367 17.6552 3.149V2.5ZM15.0372 6.372C15.3232 6.658 15.6862 6.801 16.1262 6.801C16.5662 6.801 16.9292 6.658 17.2152 6.372C17.5085 6.07867 17.6552 5.70467 17.6552 5.25C17.6552 4.79533 17.5085 4.425 17.2152 4.139C16.9292 3.84567 16.5662 3.699 16.1262 3.699C15.6862 3.699 15.3232 3.84567 15.0372 4.139C14.7512 4.425 14.6082 4.79533 14.6082 5.25C14.6082 5.70467 14.7512 6.07867 15.0372 6.372ZM24.5299 0.299999H25.9489V8H24.5299V7.351C24.1119 7.88633 23.5179 8.154 22.7479 8.154C22.0072 8.154 21.3729 7.87533 20.8449 7.318C20.3242 6.75333 20.0639 6.064 20.0639 5.25C20.0639 4.436 20.3242 3.75033 20.8449 3.193C21.3729 2.62833 22.0072 2.346 22.7479 2.346C23.5179 2.346 24.1119 2.61367 24.5299 3.149V0.299999ZM21.9119 6.372C22.2052 6.658 22.5719 6.801 23.0119 6.801C23.4519 6.801 23.8149 6.658 24.1009 6.372C24.3869 6.07867 24.5299 5.70467 24.5299 5.25C24.5299 4.79533 24.3869 4.425 24.1009 4.139C23.8149 3.84567 23.4519 3.699 23.0119 3.699C22.5719 3.699 22.2052 3.84567 21.9119 4.139C21.6259 4.425 21.4829 4.79533 21.4829 5.25C21.4829 5.70467 21.6259 6.07867 21.9119 6.372ZM37.5977 0.299999V8H36.0907V3.006L33.9237 6.581H33.7477L31.5807 3.017V8H30.0627V0.299999H31.6247L33.8357 3.941L36.0357 0.299999H37.5977ZM43.6524 7.318C43.0877 7.87533 42.3984 8.154 41.5844 8.154C40.7704 8.154 40.081 7.87533 39.5164 7.318C38.959 6.75333 38.6804 6.064 38.6804 5.25C38.6804 4.436 38.959 3.75033 39.5164 3.193C40.081 2.62833 40.7704 2.346 41.5844 2.346C42.3984 2.346 43.0877 2.62833 43.6524 3.193C44.217 3.75033 44.4994 4.436 44.4994 5.25C44.4994 6.064 44.217 6.75333 43.6524 7.318ZM40.5174 6.339C40.8034 6.625 41.159 6.768 41.5844 6.768C42.0097 6.768 42.3654 6.625 42.6514 6.339C42.9374 6.053 43.0804 5.69 43.0804 5.25C43.0804 4.81 42.9374 4.447 42.6514 4.161C42.3654 3.875 42.0097 3.732 41.5844 3.732C41.159 3.732 40.8034 3.875 40.5174 4.161C40.2387 4.447 40.0994 4.81 40.0994 5.25C40.0994 5.69 40.2387 6.053 40.5174 6.339ZM46.9166 3.446C47.0486 3.094 47.265 2.83 47.5656 2.654C47.8736 2.478 48.2146 2.39 48.5886 2.39V3.974C48.156 3.92267 47.7673 4.01067 47.4226 4.238C47.0853 4.46533 46.9166 4.843 46.9166 5.371V8H45.4976V2.5H46.9166V3.446ZM50.4134 5.833C50.6041 6.52233 51.1211 6.867 51.9644 6.867C52.5071 6.867 52.9178 6.68367 53.1964 6.317L54.3404 6.977C53.7978 7.76167 52.9984 8.154 51.9424 8.154C51.0331 8.154 50.3034 7.879 49.7534 7.329C49.2034 6.779 48.9284 6.086 48.9284 5.25C48.9284 4.42133 49.1998 3.732 49.7424 3.182C50.2851 2.62467 50.9818 2.346 51.8324 2.346C52.6391 2.346 53.3028 2.62467 53.8234 3.182C54.3514 3.73933 54.6154 4.42867 54.6154 5.25C54.6154 5.43333 54.5971 5.62767 54.5604 5.833H50.4134ZM50.3914 4.733H53.1964C53.1158 4.359 52.9471 4.08033 52.6904 3.897C52.4411 3.71367 52.1551 3.622 51.8324 3.622C51.4511 3.622 51.1358 3.721 50.8864 3.919C50.6371 4.10967 50.4721 4.381 50.3914 4.733ZM56.6506 7.868C56.4673 8.05133 56.2473 8.143 55.9906 8.143C55.7339 8.143 55.5139 8.05133 55.3306 7.868C55.1473 7.68467 55.0556 7.46467 55.0556 7.208C55.0556 6.95133 55.1473 6.73133 55.3306 6.548C55.5139 6.36467 55.7339 6.273 55.9906 6.273C56.2473 6.273 56.4673 6.36467 56.6506 6.548C56.8339 6.73133 56.9256 6.95133 56.9256 7.208C56.9256 7.46467 56.8339 7.68467 56.6506 7.868ZM59.594 7.868C59.4106 8.05133 59.1906 8.143 58.934 8.143C58.6773 8.143 58.4573 8.05133 58.274 7.868C58.0906 7.68467 57.999 7.46467 57.999 7.208C57.999 6.95133 58.0906 6.73133 58.274 6.548C58.4573 6.36467 58.6773 6.273 58.934 6.273C59.1906 6.273 59.4106 6.36467 59.594 6.548C59.7773 6.73133 59.869 6.95133 59.869 7.208C59.869 7.46467 59.7773 7.68467 59.594 7.868ZM62.5373 7.868C62.354 8.05133 62.134 8.143 61.8773 8.143C61.6207 8.143 61.4007 8.05133 61.2173 7.868C61.034 7.68467 60.9423 7.46467 60.9423 7.208C60.9423 6.95133 61.034 6.73133 61.2173 6.548C61.4007 6.36467 61.6207 6.273 61.8773 6.273C62.134 6.273 62.354 6.36467 62.5373 6.548C62.7207 6.73133 62.8123 6.95133 62.8123 7.208C62.8123 7.46467 62.7207 7.68467 62.5373 7.868Z" fill="black"/>
</svg>
