<svg width="311" height="93" viewBox="0 0 311 93" fill="none" xmlns="http://www.w3.org/2000/svg">
<path d="M12 0.47937H0V92.4794H12V0.47937Z" fill="#F16D7F"/>
<path d="M53.938 17.9805H44.61V44.5785H37.988V17.9805H28.66V12.6565H53.938V17.9805ZM85.2447 12.6565V44.5785H78.6007V30.8285H64.5427V44.5785H57.8987V12.6565H64.5427V26.2085H78.6007V12.6565H85.2447ZM98.5739 17.8265V26.0325H109.222V31.0265H98.5739V39.4085H112.258V44.5785H91.9299V12.6565H112.258V17.8265H98.5739ZM139.891 39.5185C140.947 39.5185 141.812 39.3938 142.487 39.1445C143.176 38.8805 143.726 38.5358 144.137 38.1105C144.548 37.6852 144.834 37.2012 144.995 36.6585C145.156 36.1012 145.237 35.5292 145.237 34.9425C145.237 34.2972 145.142 33.7178 144.951 33.2045C144.76 32.6912 144.452 32.2585 144.027 31.9065C143.602 31.5398 143.044 31.2612 142.355 31.0705C141.68 30.8798 140.844 30.7845 139.847 30.7845H134.237V39.5185H139.891ZM134.237 17.6725V26.2965H138.571C139.495 26.2965 140.316 26.2232 141.035 26.0765C141.754 25.9152 142.355 25.6658 142.839 25.3285C143.323 24.9912 143.69 24.5512 143.939 24.0085C144.203 23.4512 144.335 22.7838 144.335 22.0065C144.335 21.2145 144.225 20.5398 144.005 19.9825C143.8 19.4252 143.477 18.9778 143.037 18.6405C142.597 18.3032 142.04 18.0612 141.365 17.9145C140.69 17.7532 139.891 17.6725 138.967 17.6725H134.237ZM138.967 12.6565C141.108 12.6565 142.934 12.8618 144.445 13.2725C145.97 13.6685 147.21 14.2405 148.163 14.9885C149.131 15.7218 149.835 16.6165 150.275 17.6725C150.715 18.7285 150.935 19.9092 150.935 21.2145C150.935 21.9478 150.825 22.6518 150.605 23.3265C150.4 24.0012 150.07 24.6392 149.615 25.2405C149.175 25.8272 148.603 26.3625 147.899 26.8465C147.195 27.3305 146.359 27.7412 145.391 28.0785C147.562 28.5918 149.168 29.4278 150.209 30.5865C151.25 31.7452 151.771 33.2485 151.771 35.0965C151.771 36.4458 151.507 37.6998 150.979 38.8585C150.466 40.0172 149.71 41.0218 148.713 41.8725C147.716 42.7232 146.484 43.3905 145.017 43.8745C143.565 44.3438 141.893 44.5785 140.001 44.5785H127.637V12.6565H138.967ZM166.801 27.7705C167.871 27.7705 168.795 27.6385 169.573 27.3745C170.35 27.0958 170.988 26.7218 171.487 26.2525C171.985 25.7685 172.352 25.2038 172.587 24.5585C172.821 23.9132 172.939 23.2092 172.939 22.4465C172.939 20.9358 172.433 19.7625 171.421 18.9265C170.423 18.0905 168.898 17.6725 166.845 17.6725H163.413V27.7705H166.801ZM182.267 44.5785H176.305C175.19 44.5785 174.383 44.1532 173.885 43.3025L167.813 33.5125C167.563 33.1312 167.285 32.8525 166.977 32.6765C166.683 32.5005 166.243 32.4125 165.657 32.4125H163.413V44.5785H156.813V12.6565H166.845C169.074 12.6565 170.981 12.8912 172.565 13.3605C174.149 13.8152 175.447 14.4532 176.459 15.2745C177.471 16.0958 178.211 17.0785 178.681 18.2225C179.15 19.3518 179.385 20.5985 179.385 21.9625C179.385 23.0185 179.231 24.0232 178.923 24.9765C178.629 25.9152 178.197 26.7732 177.625 27.5505C177.053 28.3278 176.349 29.0172 175.513 29.6185C174.677 30.2198 173.723 30.7038 172.653 31.0705C173.078 31.3052 173.474 31.5912 173.841 31.9285C174.207 32.2512 174.537 32.6398 174.831 33.0945L182.267 44.5785ZM202.239 32.4565L198.785 22.6885C198.58 22.1752 198.36 21.5738 198.125 20.8845C197.905 20.1952 197.692 19.4472 197.487 18.6405C197.282 19.4618 197.062 20.2245 196.827 20.9285C196.607 21.6178 196.394 22.2192 196.189 22.7325L192.757 32.4565H202.239ZM213.327 44.5785H208.201C207.629 44.5785 207.16 44.4465 206.793 44.1825C206.441 43.9038 206.177 43.5518 206.001 43.1265L203.845 37.0325H191.129L188.973 43.1265C188.826 43.4932 188.57 43.8305 188.203 44.1385C187.836 44.4318 187.374 44.5785 186.817 44.5785H181.647L194.121 12.6565H200.875L213.327 44.5785ZM243.628 12.6565V44.5785H240.218C239.704 44.5785 239.272 44.4978 238.92 44.3365C238.568 44.1605 238.223 43.8672 237.886 43.4565L221.98 23.2165C222.024 23.7298 222.053 24.2358 222.068 24.7345C222.097 25.2332 222.112 25.6952 222.112 26.1205V44.5785H216.282V12.6565H219.758C220.036 12.6565 220.271 12.6712 220.462 12.7005C220.667 12.7152 220.85 12.7665 221.012 12.8545C221.173 12.9278 221.327 13.0305 221.474 13.1625C221.62 13.2945 221.782 13.4705 221.958 13.6905L237.974 34.0185C237.915 33.4612 237.871 32.9258 237.842 32.4125C237.812 31.8845 237.797 31.3858 237.797 30.9165V12.6565H243.628ZM278.935 28.6065C278.935 30.9385 278.539 33.0872 277.747 35.0525C276.969 37.0032 275.862 38.6825 274.425 40.0905C273.002 41.4985 271.286 42.5985 269.277 43.3905C267.267 44.1825 265.038 44.5785 262.589 44.5785H250.313V12.6565H262.589C265.038 12.6565 267.267 13.0525 269.277 13.8445C271.286 14.6365 273.002 15.7438 274.425 17.1665C275.862 18.5745 276.969 20.2538 277.747 22.2045C278.539 24.1552 278.935 26.2892 278.935 28.6065ZM272.159 28.6065C272.159 26.9345 271.939 25.4312 271.499 24.0965C271.059 22.7618 270.428 21.6325 269.607 20.7085C268.785 19.7845 267.781 19.0732 266.593 18.5745C265.419 18.0758 264.085 17.8265 262.589 17.8265H256.957V39.4085H262.589C264.085 39.4085 265.419 39.1665 266.593 38.6825C267.781 38.1838 268.785 37.4725 269.607 36.5485C270.428 35.6098 271.059 34.4732 271.499 33.1385C271.939 31.8038 272.159 30.2932 272.159 28.6065ZM46.48 64.9025C46.48 66.1745 46.268 67.3545 45.844 68.4425C45.428 69.5225 44.836 70.4585 44.068 71.2505C43.3 72.0425 42.376 72.6625 41.296 73.1105C40.216 73.5505 39.016 73.7705 37.696 73.7705C36.384 73.7705 35.188 73.5505 34.108 73.1105C33.028 72.6625 32.1 72.0425 31.324 71.2505C30.556 70.4585 29.96 69.5225 29.536 68.4425C29.112 67.3545 28.9 66.1745 28.9 64.9025C28.9 63.6305 29.112 62.4545 29.536 61.3745C29.96 60.2865 30.556 59.3465 31.324 58.5545C32.1 57.7625 33.028 57.1465 34.108 56.7065C35.188 56.2585 36.384 56.0345 37.696 56.0345C38.576 56.0345 39.404 56.1385 40.18 56.3465C40.956 56.5465 41.668 56.8345 42.316 57.2105C42.964 57.5785 43.544 58.0305 44.056 58.5665C44.576 59.0945 45.016 59.6865 45.376 60.3425C45.736 60.9985 46.008 61.7105 46.192 62.4785C46.384 63.2465 46.48 64.0545 46.48 64.9025ZM43.18 64.9025C43.18 63.9505 43.052 63.0985 42.796 62.3465C42.54 61.5865 42.176 60.9425 41.704 60.4145C41.232 59.8865 40.656 59.4825 39.976 59.2025C39.304 58.9225 38.544 58.7825 37.696 58.7825C36.848 58.7825 36.084 58.9225 35.404 59.2025C34.732 59.4825 34.156 59.8865 33.676 60.4145C33.204 60.9425 32.84 61.5865 32.584 62.3465C32.328 63.0985 32.2 63.9505 32.2 64.9025C32.2 65.8545 32.328 66.7105 32.584 67.4705C32.84 68.2225 33.204 68.8625 33.676 69.3905C34.156 69.9105 34.732 70.3105 35.404 70.5905C36.084 70.8705 36.848 71.0105 37.696 71.0105C38.544 71.0105 39.304 70.8705 39.976 70.5905C40.656 70.3105 41.232 69.9105 41.704 69.3905C42.176 68.8625 42.54 68.2225 42.796 67.4705C43.052 66.7105 43.18 65.8545 43.18 64.9025ZM52.5548 58.7945V63.9305H59.0588V66.5105H52.5548V73.5785H49.3148V56.2265H60.2588V58.7945H52.5548ZM78.3226 70.9145V73.5785H68.1586V56.2265H71.3866V70.9145H78.3226ZM87.1426 70.9745C87.7666 70.9745 88.3226 70.8705 88.8106 70.6625C89.3066 70.4545 89.7226 70.1625 90.0586 69.7865C90.3946 69.4105 90.6506 68.9545 90.8266 68.4185C91.0106 67.8825 91.1026 67.2825 91.1026 66.6185V56.2265H94.3306V66.6185C94.3306 67.6505 94.1626 68.6065 93.8266 69.4865C93.4986 70.3585 93.0226 71.1145 92.3986 71.7545C91.7826 72.3865 91.0306 72.8825 90.1426 73.2425C89.2546 73.5945 88.2546 73.7705 87.1426 73.7705C86.0226 73.7705 85.0186 73.5945 84.1306 73.2425C83.2426 72.8825 82.4866 72.3865 81.8626 71.7545C81.2466 71.1145 80.7706 70.3585 80.4346 69.4865C80.1066 68.6065 79.9426 67.6505 79.9426 66.6185V56.2265H83.1706V66.6065C83.1706 67.2705 83.2586 67.8705 83.4346 68.4065C83.6186 68.9425 83.8786 69.4025 84.2146 69.7865C84.5586 70.1625 84.9746 70.4545 85.4626 70.6625C85.9586 70.8705 86.5186 70.9745 87.1426 70.9745ZM112.071 73.5785H108.855C108.631 73.5785 108.451 73.5225 108.315 73.4105C108.187 73.2985 108.083 73.1705 108.003 73.0265L103.983 66.3665C103.919 66.5665 103.843 66.7385 103.755 66.8825L99.9031 73.0265C99.8071 73.1625 99.6951 73.2905 99.5671 73.4105C99.4471 73.5225 99.2871 73.5785 99.0871 73.5785H96.0751L101.835 64.6505L96.3031 56.2265H99.5191C99.7431 56.2265 99.9031 56.2585 99.9991 56.3225C100.103 56.3785 100.199 56.4745 100.287 56.6105L104.235 62.9705C104.315 62.7705 104.411 62.5705 104.523 62.3705L108.147 56.6705C108.235 56.5185 108.331 56.4065 108.435 56.3345C108.539 56.2625 108.671 56.2265 108.831 56.2265H111.915L106.335 64.5185L112.071 73.5785ZM117.313 58.7945V63.6065H123.385V66.0905H117.313V70.9985H125.017V73.5785H114.073V56.2265H125.017V58.7945H117.313ZM133.121 64.4825C133.729 64.4825 134.257 64.4065 134.705 64.2545C135.161 64.1025 135.533 63.8945 135.821 63.6305C136.117 63.3585 136.337 63.0385 136.481 62.6705C136.625 62.3025 136.697 61.8985 136.697 61.4585C136.697 60.5785 136.405 59.9025 135.821 59.4305C135.245 58.9585 134.361 58.7225 133.169 58.7225H131.105V64.4825H133.121ZM141.425 73.5785H138.509C137.957 73.5785 137.557 73.3625 137.309 72.9305L133.661 67.3745C133.525 67.1665 133.373 67.0185 133.205 66.9305C133.045 66.8425 132.805 66.7985 132.485 66.7985H131.105V73.5785H127.877V56.2265H133.169C134.345 56.2265 135.353 56.3505 136.193 56.5985C137.041 56.8385 137.733 57.1785 138.269 57.6185C138.813 58.0585 139.213 58.5865 139.469 59.2025C139.725 59.8105 139.853 60.4825 139.853 61.2185C139.853 61.8025 139.765 62.3545 139.589 62.8745C139.421 63.3945 139.173 63.8665 138.845 64.2905C138.525 64.7145 138.125 65.0865 137.645 65.4065C137.173 65.7265 136.633 65.9785 136.025 66.1625C136.233 66.2825 136.425 66.4265 136.601 66.5945C136.777 66.7545 136.937 66.9465 137.081 67.1705L141.425 73.5785ZM146.539 73.5785H143.299V56.2265H146.539V73.5785ZM166.972 64.9025C166.972 66.1745 166.76 67.3545 166.336 68.4425C165.92 69.5225 165.328 70.4585 164.56 71.2505C163.792 72.0425 162.868 72.6625 161.788 73.1105C160.708 73.5505 159.508 73.7705 158.188 73.7705C156.876 73.7705 155.68 73.5505 154.6 73.1105C153.52 72.6625 152.592 72.0425 151.816 71.2505C151.048 70.4585 150.452 69.5225 150.028 68.4425C149.604 67.3545 149.392 66.1745 149.392 64.9025C149.392 63.6305 149.604 62.4545 150.028 61.3745C150.452 60.2865 151.048 59.3465 151.816 58.5545C152.592 57.7625 153.52 57.1465 154.6 56.7065C155.68 56.2585 156.876 56.0345 158.188 56.0345C159.068 56.0345 159.896 56.1385 160.672 56.3465C161.448 56.5465 162.16 56.8345 162.808 57.2105C163.456 57.5785 164.036 58.0305 164.548 58.5665C165.068 59.0945 165.508 59.6865 165.868 60.3425C166.228 60.9985 166.5 61.7105 166.684 62.4785C166.876 63.2465 166.972 64.0545 166.972 64.9025ZM163.672 64.9025C163.672 63.9505 163.544 63.0985 163.288 62.3465C163.032 61.5865 162.668 60.9425 162.196 60.4145C161.724 59.8865 161.148 59.4825 160.468 59.2025C159.796 58.9225 159.036 58.7825 158.188 58.7825C157.34 58.7825 156.576 58.9225 155.896 59.2025C155.224 59.4825 154.648 59.8865 154.168 60.4145C153.696 60.9425 153.332 61.5865 153.076 62.3465C152.82 63.0985 152.692 63.9505 152.692 64.9025C152.692 65.8545 152.82 66.7105 153.076 67.4705C153.332 68.2225 153.696 68.8625 154.168 69.3905C154.648 69.9105 155.224 70.3105 155.896 70.5905C156.576 70.8705 157.34 71.0105 158.188 71.0105C159.036 71.0105 159.796 70.8705 160.468 70.5905C161.148 70.3105 161.724 69.9105 162.196 69.3905C162.668 68.8625 163.032 68.2225 163.288 67.4705C163.544 66.7105 163.672 65.8545 163.672 64.9025ZM176.791 70.9745C177.415 70.9745 177.971 70.8705 178.459 70.6625C178.955 70.4545 179.371 70.1625 179.707 69.7865C180.043 69.4105 180.299 68.9545 180.475 68.4185C180.659 67.8825 180.751 67.2825 180.751 66.6185V56.2265H183.979V66.6185C183.979 67.6505 183.811 68.6065 183.475 69.4865C183.147 70.3585 182.671 71.1145 182.047 71.7545C181.431 72.3865 180.679 72.8825 179.791 73.2425C178.903 73.5945 177.903 73.7705 176.791 73.7705C175.671 73.7705 174.667 73.5945 173.779 73.2425C172.891 72.8825 172.135 72.3865 171.511 71.7545C170.895 71.1145 170.419 70.3585 170.083 69.4865C169.755 68.6065 169.591 67.6505 169.591 66.6185V56.2265H172.819V66.6065C172.819 67.2705 172.907 67.8705 173.083 68.4065C173.267 68.9425 173.527 69.4025 173.863 69.7865C174.207 70.1625 174.623 70.4545 175.111 70.6625C175.607 70.8705 176.167 70.9745 176.791 70.9745ZM196.86 59.3825C196.764 59.5505 196.66 59.6745 196.548 59.7545C196.444 59.8265 196.312 59.8625 196.152 59.8625C195.984 59.8625 195.8 59.8025 195.6 59.6825C195.408 59.5545 195.176 59.4145 194.904 59.2625C194.632 59.1105 194.312 58.9745 193.944 58.8545C193.584 58.7265 193.156 58.6625 192.66 58.6625C192.212 58.6625 191.82 58.7185 191.484 58.8305C191.148 58.9345 190.864 59.0825 190.632 59.2745C190.408 59.4665 190.24 59.6985 190.128 59.9705C190.016 60.2345 189.96 60.5265 189.96 60.8465C189.96 61.2545 190.072 61.5945 190.296 61.8665C190.528 62.1385 190.832 62.3705 191.208 62.5625C191.584 62.7545 192.012 62.9265 192.492 63.0785C192.972 63.2305 193.464 63.3945 193.968 63.5705C194.472 63.7385 194.964 63.9385 195.444 64.1705C195.924 64.3945 196.352 64.6825 196.728 65.0345C197.104 65.3785 197.404 65.8025 197.628 66.3065C197.86 66.8105 197.976 67.4225 197.976 68.1425C197.976 68.9265 197.84 69.6625 197.568 70.3505C197.304 71.0305 196.912 71.6265 196.392 72.1385C195.88 72.6425 195.252 73.0425 194.508 73.3385C193.764 73.6265 192.912 73.7705 191.952 73.7705C191.4 73.7705 190.856 73.7145 190.32 73.6025C189.784 73.4985 189.268 73.3465 188.771 73.1465C188.284 72.9465 187.824 72.7065 187.392 72.4265C186.96 72.1465 186.576 71.8345 186.24 71.4905L187.188 69.9425C187.268 69.8305 187.372 69.7385 187.5 69.6665C187.628 69.5865 187.764 69.5465 187.908 69.5465C188.108 69.5465 188.324 69.6305 188.556 69.7985C188.788 69.9585 189.064 70.1385 189.384 70.3385C189.704 70.5385 190.076 70.7225 190.5 70.8905C190.932 71.0505 191.448 71.1305 192.048 71.1305C192.968 71.1305 193.68 70.9145 194.184 70.4825C194.688 70.0425 194.94 69.4145 194.94 68.5985C194.94 68.1425 194.824 67.7705 194.592 67.4825C194.368 67.1945 194.068 66.9545 193.692 66.7625C193.316 66.5625 192.888 66.3945 192.408 66.2585C191.928 66.1225 191.44 65.9745 190.944 65.8145C190.448 65.6545 189.96 65.4625 189.48 65.2385C189 65.0145 188.572 64.7225 188.196 64.3625C187.82 64.0025 187.516 63.5545 187.284 63.0185C187.06 62.4745 186.948 61.8065 186.948 61.0145C186.948 60.3825 187.072 59.7665 187.32 59.1665C187.576 58.5665 187.944 58.0345 188.424 57.5705C188.904 57.1065 189.496 56.7345 190.2 56.4545C190.904 56.1745 191.712 56.0345 192.624 56.0345C193.648 56.0345 194.592 56.1945 195.456 56.5145C196.32 56.8345 197.056 57.2825 197.664 57.8585L196.86 59.3825Z" fill="#222222"/>
<path d="M209.867 58.7945V63.9305H216.371V66.5105H209.867V73.5785H206.627V56.2265H217.571V58.7945H209.867ZM227.959 67.0265L225.847 61.2545C225.743 60.9985 225.635 60.6945 225.523 60.3425C225.411 59.9905 225.299 59.6105 225.187 59.2025C225.083 59.6105 224.975 59.9945 224.863 60.3545C224.751 60.7065 224.643 61.0145 224.539 61.2785L222.439 67.0265H227.959ZM233.659 73.5785H231.163C230.883 73.5785 230.655 73.5105 230.479 73.3745C230.303 73.2305 230.171 73.0545 230.083 72.8465L228.787 69.3065H221.599L220.303 72.8465C220.239 73.0305 220.115 73.1985 219.931 73.3505C219.747 73.5025 219.519 73.5785 219.247 73.5785H216.727L223.555 56.2265H226.843L233.659 73.5785ZM244.695 59.3825C244.599 59.5505 244.495 59.6745 244.383 59.7545C244.279 59.8265 244.147 59.8625 243.987 59.8625C243.819 59.8625 243.635 59.8025 243.435 59.6825C243.243 59.5545 243.011 59.4145 242.739 59.2625C242.467 59.1105 242.147 58.9745 241.779 58.8545C241.419 58.7265 240.991 58.6625 240.495 58.6625C240.047 58.6625 239.655 58.7185 239.319 58.8305C238.983 58.9345 238.699 59.0825 238.467 59.2745C238.243 59.4665 238.075 59.6985 237.963 59.9705C237.851 60.2345 237.795 60.5265 237.795 60.8465C237.795 61.2545 237.907 61.5945 238.131 61.8665C238.363 62.1385 238.667 62.3705 239.043 62.5625C239.419 62.7545 239.847 62.9265 240.327 63.0785C240.807 63.2305 241.299 63.3945 241.803 63.5705C242.307 63.7385 242.799 63.9385 243.279 64.1705C243.759 64.3945 244.187 64.6825 244.563 65.0345C244.939 65.3785 245.239 65.8025 245.463 66.3065C245.695 66.8105 245.811 67.4225 245.811 68.1425C245.811 68.9265 245.675 69.6625 245.403 70.3505C245.139 71.0305 244.747 71.6265 244.227 72.1385C243.715 72.6425 243.087 73.0425 242.343 73.3385C241.599 73.6265 240.747 73.7705 239.787 73.7705C239.235 73.7705 238.691 73.7145 238.155 73.6025C237.619 73.4985 237.103 73.3465 236.607 73.1465C236.119 72.9465 235.659 72.7065 235.227 72.4265C234.795 72.1465 234.411 71.8345 234.075 71.4905L235.023 69.9425C235.103 69.8305 235.207 69.7385 235.335 69.6665C235.463 69.5865 235.599 69.5465 235.743 69.5465C235.943 69.5465 236.159 69.6305 236.391 69.7985C236.623 69.9585 236.899 70.1385 237.219 70.3385C237.539 70.5385 237.911 70.7225 238.335 70.8905C238.767 71.0505 239.283 71.1305 239.883 71.1305C240.803 71.1305 241.515 70.9145 242.019 70.4825C242.523 70.0425 242.775 69.4145 242.775 68.5985C242.775 68.1425 242.659 67.7705 242.427 67.4825C242.203 67.1945 241.903 66.9545 241.527 66.7625C241.151 66.5625 240.723 66.3945 240.243 66.2585C239.763 66.1225 239.275 65.9745 238.779 65.8145C238.283 65.6545 237.795 65.4625 237.315 65.2385C236.835 65.0145 236.407 64.7225 236.031 64.3625C235.655 64.0025 235.351 63.5545 235.119 63.0185C234.895 62.4745 234.783 61.8065 234.783 61.0145C234.783 60.3825 234.907 59.7665 235.155 59.1665C235.411 58.5665 235.779 58.0345 236.259 57.5705C236.739 57.1065 237.331 56.7345 238.035 56.4545C238.739 56.1745 239.547 56.0345 240.459 56.0345C241.483 56.0345 242.427 56.1945 243.291 56.5145C244.155 56.8345 244.891 57.2825 245.499 57.8585L244.695 59.3825ZM263.255 56.2265V73.5785H260.015V65.9945H251.867V73.5785H248.627V56.2265H251.867V63.6905H260.015V56.2265H263.255ZM270.36 73.5785H267.12V56.2265H270.36V73.5785ZM290.793 64.9025C290.793 66.1745 290.581 67.3545 290.157 68.4425C289.741 69.5225 289.149 70.4585 288.381 71.2505C287.613 72.0425 286.689 72.6625 285.609 73.1105C284.529 73.5505 283.329 73.7705 282.009 73.7705C280.697 73.7705 279.501 73.5505 278.421 73.1105C277.341 72.6625 276.413 72.0425 275.637 71.2505C274.869 70.4585 274.273 69.5225 273.849 68.4425C273.425 67.3545 273.213 66.1745 273.213 64.9025C273.213 63.6305 273.425 62.4545 273.849 61.3745C274.273 60.2865 274.869 59.3465 275.637 58.5545C276.413 57.7625 277.341 57.1465 278.421 56.7065C279.501 56.2585 280.697 56.0345 282.009 56.0345C282.889 56.0345 283.717 56.1385 284.493 56.3465C285.269 56.5465 285.981 56.8345 286.629 57.2105C287.277 57.5785 287.857 58.0305 288.369 58.5665C288.889 59.0945 289.329 59.6865 289.689 60.3425C290.049 60.9985 290.321 61.7105 290.505 62.4785C290.697 63.2465 290.793 64.0545 290.793 64.9025ZM287.493 64.9025C287.493 63.9505 287.365 63.0985 287.109 62.3465C286.853 61.5865 286.489 60.9425 286.017 60.4145C285.545 59.8865 284.969 59.4825 284.289 59.2025C283.617 58.9225 282.857 58.7825 282.009 58.7825C281.161 58.7825 280.397 58.9225 279.717 59.2025C279.045 59.4825 278.469 59.8865 277.989 60.4145C277.517 60.9425 277.153 61.5865 276.897 62.3465C276.641 63.0985 276.513 63.9505 276.513 64.9025C276.513 65.8545 276.641 66.7105 276.897 67.4705C277.153 68.2225 277.517 68.8625 277.989 69.3905C278.469 69.9105 279.045 70.3105 279.717 70.5905C280.397 70.8705 281.161 71.0105 282.009 71.0105C282.857 71.0105 283.617 70.8705 284.289 70.5905C284.969 70.3105 285.545 69.9105 286.017 69.3905C286.489 68.8625 286.853 68.2225 287.109 67.4705C287.365 66.7105 287.493 65.8545 287.493 64.9025ZM308.255 56.2265V73.5785H306.599C306.343 73.5785 306.127 73.5385 305.951 73.4585C305.783 73.3705 305.619 73.2265 305.459 73.0265L296.399 61.4585C296.447 61.9865 296.471 62.4745 296.471 62.9225V73.5785H293.627V56.2265H295.319C295.455 56.2265 295.571 56.2345 295.667 56.2505C295.771 56.2585 295.859 56.2825 295.931 56.3225C296.011 56.3545 296.087 56.4065 296.159 56.4785C296.231 56.5425 296.311 56.6305 296.399 56.7425L305.495 68.3585C305.471 68.0785 305.451 67.8025 305.435 67.5305C305.419 67.2585 305.411 67.0065 305.411 66.7745V56.2265H308.255Z" fill="#F16D7F"/>
</svg>
