<svg width="32" height="32" viewBox="0 0 32 32" fill="none" xmlns="http://www.w3.org/2000/svg">
<path d="M31.9259 0H0.475342V32H31.9259V0Z" fill="white"/>
<g clip-path="url(#clip0_190_1904)">
<path d="M16.7401 8.20312C13.5554 8.20312 10.408 10.3406 10.408 13.8C10.408 16 11.6371 17.25 12.3821 17.25C12.6894 17.25 12.8663 16.3875 12.8663 16.1438C12.8663 15.8531 12.1307 15.2344 12.1307 14.025C12.1307 11.5125 14.0303 9.73125 16.4887 9.73125C18.6025 9.73125 20.1669 10.9406 20.1669 13.1625C20.1669 14.8219 19.5057 17.9344 17.364 17.9344C16.5911 17.9344 15.9299 17.3719 15.9299 16.5656C15.9299 15.3844 16.7494 14.2406 16.7494 13.0219C16.7494 10.9531 13.8348 11.3281 13.8348 13.8281C13.8348 14.3531 13.8999 14.9344 14.1327 15.4125C13.7044 17.2688 12.8291 20.0344 12.8291 21.9469C12.8291 22.5375 12.9129 23.1188 12.9687 23.7094C13.0743 23.8281 13.0215 23.8156 13.1829 23.7563C14.7473 21.6 14.6915 21.1781 15.3992 18.3562C15.7809 19.0875 16.768 19.4812 17.5502 19.4812C20.8466 19.4812 22.3272 16.2469 22.3272 13.3313C22.3272 10.2281 19.664 8.20312 16.7401 8.20312Z" fill="black"/>
</g>
<defs>
<clipPath id="clip0_190_1904">
<rect width="11.9193" height="16" fill="white" transform="translate(10.408 8)"/>
</clipPath>
</defs>
</svg>
